solid CATIA STL
  facet normal  0.000000e+000  0.000000e+000  1.000000e+000
    outer loop
      vertex -5.834310e+000  3.834710e+000  3.750000e+000
      vertex -5.381709e+000  3.405252e+000  3.750000e+000
      vertex -7.195293e+000  5.403349e+000  3.750000e+000
    endloop
  endfacet
  facet normal  -0.000000e+000  -0.000000e+000  1.000000e+000
    outer loop
      vertex -7.195293e+000  5.403349e+000  3.750000e+000
      vertex -7.070203e+000  5.047732e+000  3.750000e+000
      vertex -5.834310e+000  3.834710e+000  3.750000e+000
    endloop
  endfacet
  facet normal  0.000000e+000  0.000000e+000  1.000000e+000
    outer loop
      vertex  3.459593e+000 -5.581671e+000  3.750000e+000
      vertex -7.195293e+000  5.403349e+000  3.750000e+000
      vertex -5.381709e+000  3.405252e+000  3.750000e+000
    endloop
  endfacet
  facet normal  0.000000e+000  -0.000000e+000  1.000000e+000
    outer loop
      vertex -4.736826e+000  7.818091e+000  3.750000e+000
      vertex  6.120586e+000 -3.515652e+000  3.750000e+000
      vertex  6.488431e+000 -2.940661e+000  3.750000e+000
    endloop
  endfacet
  facet normal  0.000000e+000  -0.000000e+000  1.000000e+000
    outer loop
      vertex -4.736826e+000  7.818091e+000  3.750000e+000
      vertex  6.488431e+000 -2.940661e+000  3.750000e+000
      vertex  6.788588e+000 -2.327612e+000  3.750000e+000
    endloop
  endfacet
  facet normal  0.000000e+000  -0.000000e+000  1.000000e+000
    outer loop
      vertex -4.736826e+000  7.818091e+000  3.750000e+000
      vertex  6.788588e+000 -2.327612e+000  3.750000e+000
      vertex  7.017172e+000 -1.684437e+000  3.750000e+000
    endloop
  endfacet
  facet normal  0.000000e+000  -0.000000e+000  1.000000e+000
    outer loop
      vertex -4.736826e+000  7.818091e+000  3.750000e+000
      vertex  7.017172e+000 -1.684437e+000  3.750000e+000
      vertex  7.171225e+000 -1.019462e+000  3.750000e+000
    endloop
  endfacet
  facet normal  0.000000e+000  -0.000000e+000  1.000000e+000
    outer loop
      vertex -4.736826e+000  7.818091e+000  3.750000e+000
      vertex  7.171225e+000 -1.019462e+000  3.750000e+000
      vertex  7.248753e+000 -3.412932e-001  3.750000e+000
    endloop
  endfacet
  facet normal  0.000000e+000  -0.000000e+000  1.000000e+000
    outer loop
      vertex -4.736826e+000  7.818091e+000  3.750000e+000
      vertex  7.248753e+000 -3.412932e-001  3.750000e+000
      vertex  7.248753e+000  3.412932e-001  3.750000e+000
    endloop
  endfacet
  facet normal  0.000000e+000  0.000000e+000  1.000000e+000
    outer loop
      vertex -4.736826e+000  7.818091e+000  3.750000e+000
      vertex  7.248753e+000  3.412932e-001  3.750000e+000
      vertex  7.171225e+000  1.019462e+000  3.750000e+000
    endloop
  endfacet
  facet normal  0.000000e+000  0.000000e+000  1.000000e+000
    outer loop
      vertex -4.736826e+000  7.818091e+000  3.750000e+000
      vertex  7.171225e+000  1.019462e+000  3.750000e+000
      vertex  2.811382e+000  5.795555e+000  3.750000e+000
    endloop
  endfacet
  facet normal  0.000000e+000  0.000000e+000  1.000000e+000
    outer loop
      vertex  2.811382e+000 -5.795555e+000  3.750000e+000
      vertex  3.459593e+000 -5.581671e+000  3.750000e+000
      vertex -5.381709e+000  3.405252e+000  3.750000e+000
    endloop
  endfacet
  facet normal  0.000000e+000  0.000000e+000  1.000000e+000
    outer loop
      vertex  2.811382e+000 -5.795555e+000  3.750000e+000
      vertex -5.381709e+000  3.405252e+000  3.750000e+000
      vertex -4.986118e+000  2.922769e+000  3.750000e+000
    endloop
  endfacet
  facet normal  0.000000e+000  0.000000e+000  1.000000e+000
    outer loop
      vertex  2.811382e+000 -5.795555e+000  3.750000e+000
      vertex -4.986118e+000  2.922769e+000  3.750000e+000
      vertex -4.653695e+000  2.394776e+000  3.750000e+000
    endloop
  endfacet
  facet normal  0.000000e+000  0.000000e+000  1.000000e+000
    outer loop
      vertex  2.811382e+000 -5.795555e+000  3.750000e+000
      vertex -4.653695e+000  2.394776e+000  3.750000e+000
      vertex -4.389618e+000  1.829492e+000  3.750000e+000
    endloop
  endfacet
  facet normal  0.000000e+000  0.000000e+000  1.000000e+000
    outer loop
      vertex  2.811382e+000 -5.795555e+000  3.750000e+000
      vertex -4.389618e+000  1.829492e+000  3.750000e+000
      vertex -4.197999e+000  1.235722e+000  3.750000e+000
    endloop
  endfacet
  facet normal  0.000000e+000  0.000000e+000  9.999999e-001
    outer loop
      vertex  2.811382e+000 -5.795555e+000  3.750000e+000
      vertex -4.197999e+000  1.235722e+000  3.750000e+000
      vertex -4.081820e+000  6.227090e-001  3.750000e+000
    endloop
  endfacet
  facet normal  0.000000e+000  0.000000e+000  1.000000e+000
    outer loop
      vertex  2.811382e+000 -5.795555e+000  3.750000e+000
      vertex -4.081820e+000  6.227090e-001  3.750000e+000
      vertex -4.042892e+000  1.448175e-012  3.750000e+000
    endloop
  endfacet
  facet normal  0.000000e+000  0.000000e+000  1.000000e+000
    outer loop
      vertex  2.811382e+000 -5.795555e+000  3.750000e+000
      vertex -4.042892e+000  1.448175e-012  3.750000e+000
      vertex -4.081820e+000 -6.227090e-001  3.750000e+000
    endloop
  endfacet
  facet normal  0.000000e+000  0.000000e+000  1.000000e+000
    outer loop
      vertex  2.811382e+000 -5.795555e+000  3.750000e+000
      vertex -4.081820e+000 -6.227090e-001  3.750000e+000
      vertex -4.736826e+000 -7.818091e+000  3.750000e+000
    endloop
  endfacet
  facet normal  0.000000e+000  0.000000e+000  1.000000e+000
    outer loop
      vertex -4.736826e+000 -7.818091e+000  3.750000e+000
      vertex -4.081820e+000 -6.227090e-001  3.750000e+000
      vertex -4.197999e+000 -1.235722e+000  3.750000e+000
    endloop
  endfacet
  facet normal  0.000000e+000  0.000000e+000  1.000000e+000
    outer loop
      vertex -4.736826e+000 -7.818091e+000  3.750000e+000
      vertex -4.197999e+000 -1.235722e+000  3.750000e+000
      vertex -4.389618e+000 -1.829492e+000  3.750000e+000
    endloop
  endfacet
  facet normal  0.000000e+000  0.000000e+000  1.000000e+000
    outer loop
      vertex -4.736826e+000 -7.818091e+000  3.750000e+000
      vertex -4.389618e+000 -1.829492e+000  3.750000e+000
      vertex -4.653695e+000 -2.394776e+000  3.750000e+000
    endloop
  endfacet
  facet normal  0.000000e+000  0.000000e+000  1.000000e+000
    outer loop
      vertex -4.736826e+000 -7.818091e+000  3.750000e+000
      vertex -4.653695e+000 -2.394776e+000  3.750000e+000
      vertex -4.986118e+000 -2.922769e+000  3.750000e+000
    endloop
  endfacet
  facet normal  0.000000e+000  0.000000e+000  1.000000e+000
    outer loop
      vertex -4.736826e+000 -7.818091e+000  3.750000e+000
      vertex -4.986118e+000 -2.922769e+000  3.750000e+000
      vertex -5.381709e+000 -3.405252e+000  3.750000e+000
    endloop
  endfacet
  facet normal  0.000000e+000  0.000000e+000  1.000000e+000
    outer loop
      vertex -4.736826e+000 -7.818091e+000  3.750000e+000
      vertex -5.381709e+000 -3.405252e+000  3.750000e+000
      vertex -5.834310e+000 -3.834710e+000  3.750000e+000
    endloop
  endfacet
  facet normal  0.000000e+000  0.000000e+000  1.000000e+000
    outer loop
      vertex -4.736826e+000 -7.818091e+000  3.750000e+000
      vertex -5.834310e+000 -3.834710e+000  3.750000e+000
      vertex -6.336873e+000 -4.204457e+000  3.750000e+000
    endloop
  endfacet
  facet normal  0.000000e+000  0.000000e+000  9.999999e-001
    outer loop
      vertex -4.736826e+000 -7.818091e+000  3.750000e+000
      vertex -6.336873e+000 -4.204457e+000  3.750000e+000
      vertex -6.633230e+000 -4.437445e+000  3.750000e+000
    endloop
  endfacet
  facet normal  0.000000e+000  0.000000e+000  9.999999e-001
    outer loop
      vertex -4.736826e+000 -7.818091e+000  3.750000e+000
      vertex -6.633230e+000 -4.437445e+000  3.750000e+000
      vertex -6.880603e+000 -4.721905e+000  3.750000e+000
    endloop
  endfacet
  facet normal  0.000000e+000  0.000000e+000  1.000000e+000
    outer loop
      vertex -4.736826e+000 -7.818091e+000  3.750000e+000
      vertex -6.880603e+000 -4.721905e+000  3.750000e+000
      vertex -7.070203e+000 -5.047732e+000  3.750000e+000
    endloop
  endfacet
  facet normal  0.000000e+000  0.000000e+000  1.000000e+000
    outer loop
      vertex -4.736826e+000 -7.818091e+000  3.750000e+000
      vertex -7.070203e+000 -5.047732e+000  3.750000e+000
      vertex -7.195293e+000 -5.403349e+000  3.750000e+000
    endloop
  endfacet
  facet normal  0.000000e+000  0.000000e+000  1.000000e+000
    outer loop
      vertex -4.736826e+000 -7.818091e+000  3.750000e+000
      vertex -7.195293e+000 -5.403349e+000  3.750000e+000
      vertex -7.251431e+000 -5.776122e+000  3.750000e+000
    endloop
  endfacet
  facet normal  0.000000e+000  0.000000e+000  1.000000e+000
    outer loop
      vertex -4.736826e+000 -7.818091e+000  3.750000e+000
      vertex -7.251431e+000 -5.776122e+000  3.750000e+000
      vertex -5.108532e+000 -7.880908e+000  3.750000e+000
    endloop
  endfacet
  facet normal  0.000000e+000  0.000000e+000  1.000000e+000
    outer loop
      vertex -5.834310e+000  3.834710e+000  3.750000e+000
      vertex -7.070203e+000  5.047732e+000  3.750000e+000
      vertex -6.336873e+000  4.204457e+000  3.750000e+000
    endloop
  endfacet
  facet normal  0.000000e+000  0.000000e+000  1.000000e+000
    outer loop
      vertex -6.336873e+000  4.204457e+000  3.750000e+000
      vertex -7.070203e+000  5.047732e+000  3.750000e+000
      vertex -6.880603e+000  4.721905e+000  3.750000e+000
    endloop
  endfacet
  facet normal  0.000000e+000  0.000000e+000  1.000000e+000
    outer loop
      vertex -6.336873e+000  4.204457e+000  3.750000e+000
      vertex -6.880603e+000  4.721905e+000  3.750000e+000
      vertex -6.633230e+000  4.437445e+000  3.750000e+000
    endloop
  endfacet
  facet normal  0.000000e+000  0.000000e+000  1.000000e+000
    outer loop
      vertex  2.811382e+000  5.795555e+000  3.750000e+000
      vertex  7.171225e+000  1.019462e+000  3.750000e+000
      vertex  3.459593e+000  5.581671e+000  3.750000e+000
    endloop
  endfacet
  facet normal  0.000000e+000  0.000000e+000  1.000000e+000
    outer loop
      vertex  3.459593e+000  5.581671e+000  3.750000e+000
      vertex  7.171225e+000  1.019462e+000  3.750000e+000
      vertex  7.017172e+000  1.684437e+000  3.750000e+000
    endloop
  endfacet
  facet normal  0.000000e+000  0.000000e+000  1.000000e+000
    outer loop
      vertex  3.459593e+000  5.581671e+000  3.750000e+000
      vertex  7.017172e+000  1.684437e+000  3.750000e+000
      vertex  4.079317e+000  5.295547e+000  3.750000e+000
    endloop
  endfacet
  facet normal  0.000000e+000  0.000000e+000  1.000000e+000
    outer loop
      vertex  4.079317e+000  5.295547e+000  3.750000e+000
      vertex  7.017172e+000  1.684437e+000  3.750000e+000
      vertex  6.788588e+000  2.327612e+000  3.750000e+000
    endloop
  endfacet
  facet normal  0.000000e+000  0.000000e+000  1.000000e+000
    outer loop
      vertex  4.079317e+000  5.295547e+000  3.750000e+000
      vertex  6.788588e+000  2.327612e+000  3.750000e+000
      vertex  4.662531e+000  4.940886e+000  3.750000e+000
    endloop
  endfacet
  facet normal  0.000000e+000  0.000000e+000  1.000000e+000
    outer loop
      vertex  4.662531e+000  4.940886e+000  3.750000e+000
      vertex  6.788588e+000  2.327612e+000  3.750000e+000
      vertex  6.488431e+000  2.940661e+000  3.750000e+000
    endloop
  endfacet
  facet normal  0.000000e+000  0.000000e+000  9.999999e-001
    outer loop
      vertex  4.662531e+000  4.940886e+000  3.750000e+000
      vertex  6.488431e+000  2.940661e+000  3.750000e+000
      vertex  5.201690e+000  4.522278e+000  3.750000e+000
    endloop
  endfacet
  facet normal  0.000000e+000  0.000000e+000  9.999999e-001
    outer loop
      vertex  5.201690e+000  4.522278e+000  3.750000e+000
      vertex  6.488431e+000  2.940661e+000  3.750000e+000
      vertex  6.120586e+000  3.515652e+000  3.750000e+000
    endloop
  endfacet
  facet normal  0.000000e+000  0.000000e+000  1.000000e+000
    outer loop
      vertex  5.201690e+000  4.522278e+000  3.750000e+000
      vertex  6.120586e+000  3.515652e+000  3.750000e+000
      vertex  5.689814e+000  4.045142e+000  3.750000e+000
    endloop
  endfacet
  facet normal  0.000000e+000  0.000000e+000  1.000000e+000
    outer loop
      vertex  6.120586e+000 -3.515652e+000  3.750000e+000
      vertex -4.736826e+000  7.818091e+000  3.750000e+000
      vertex  5.689814e+000 -4.045142e+000  3.750000e+000
    endloop
  endfacet
  facet normal  0.000000e+000  0.000000e+000  1.000000e+000
    outer loop
      vertex  5.689814e+000 -4.045142e+000  3.750000e+000
      vertex -4.736826e+000  7.818091e+000  3.750000e+000
      vertex -5.108532e+000  7.880908e+000  3.750000e+000
    endloop
  endfacet
  facet normal  0.000000e+000  0.000000e+000  1.000000e+000
    outer loop
      vertex  5.689814e+000 -4.045142e+000  3.750000e+000
      vertex -5.108532e+000  7.880908e+000  3.750000e+000
      vertex -5.854107e+000  7.794230e+000  3.750000e+000
    endloop
  endfacet
  facet normal  0.000000e+000  0.000000e+000  1.000000e+000
    outer loop
      vertex -5.854107e+000  7.794230e+000  3.750000e+000
      vertex -5.108532e+000  7.880908e+000  3.750000e+000
      vertex -5.485423e+000  7.872859e+000  3.750000e+000
    endloop
  endfacet
  facet normal  0.000000e+000  0.000000e+000  1.000000e+000
    outer loop
      vertex  5.689814e+000 -4.045142e+000  3.750000e+000
      vertex -5.854107e+000  7.794230e+000  3.750000e+000
      vertex  5.201690e+000 -4.522278e+000  3.750000e+000
    endloop
  endfacet
  facet normal  0.000000e+000  0.000000e+000  1.000000e+000
    outer loop
      vertex  5.201690e+000 -4.522278e+000  3.750000e+000
      vertex -5.854107e+000  7.794230e+000  3.750000e+000
      vertex -6.201488e+000  7.647815e+000  3.750000e+000
    endloop
  endfacet
  facet normal  0.000000e+000  0.000000e+000  1.000000e+000
    outer loop
      vertex  5.201690e+000 -4.522278e+000  3.750000e+000
      vertex -6.201488e+000  7.647815e+000  3.750000e+000
      vertex -6.515224e+000  7.438814e+000  3.750000e+000
    endloop
  endfacet
  facet normal  0.000000e+000  0.000000e+000  1.000000e+000
    outer loop
      vertex  5.201690e+000 -4.522278e+000  3.750000e+000
      vertex -6.515224e+000  7.438814e+000  3.750000e+000
      vertex  4.662531e+000 -4.940886e+000  3.750000e+000
    endloop
  endfacet
  facet normal  0.000000e+000  0.000000e+000  1.000000e+000
    outer loop
      vertex  4.662531e+000 -4.940886e+000  3.750000e+000
      vertex -6.515224e+000  7.438814e+000  3.750000e+000
      vertex -6.784167e+000  7.174654e+000  3.750000e+000
    endloop
  endfacet
  facet normal  0.000000e+000  0.000000e+000  9.999999e-001
    outer loop
      vertex  4.662531e+000 -4.940886e+000  3.750000e+000
      vertex -6.784167e+000  7.174654e+000  3.750000e+000
      vertex  4.079317e+000 -5.295547e+000  3.750000e+000
    endloop
  endfacet
  facet normal  0.000000e+000  0.000000e+000  9.999999e-001
    outer loop
      vertex  4.079317e+000 -5.295547e+000  3.750000e+000
      vertex -6.784167e+000  7.174654e+000  3.750000e+000
      vertex -6.998764e+000  6.864719e+000  3.750000e+000
    endloop
  endfacet
  facet normal  0.000000e+000  0.000000e+000  1.000000e+000
    outer loop
      vertex  4.079317e+000 -5.295547e+000  3.750000e+000
      vertex -6.998764e+000  6.864719e+000  3.750000e+000
      vertex -7.151389e+000  6.520021e+000  3.750000e+000
    endloop
  endfacet
  facet normal  0.000000e+000  0.000000e+000  1.000000e+000
    outer loop
      vertex  4.079317e+000 -5.295547e+000  3.750000e+000
      vertex -7.151389e+000  6.520021e+000  3.750000e+000
      vertex  3.459593e+000 -5.581671e+000  3.750000e+000
    endloop
  endfacet
  facet normal  0.000000e+000  0.000000e+000  1.000000e+000
    outer loop
      vertex  3.459593e+000 -5.581671e+000  3.750000e+000
      vertex -7.151389e+000  6.520021e+000  3.750000e+000
      vertex -7.236620e+000  6.152807e+000  3.750000e+000
    endloop
  endfacet
  facet normal  0.000000e+000  0.000000e+000  1.000000e+000
    outer loop
      vertex  3.459593e+000 -5.581671e+000  3.750000e+000
      vertex -7.236620e+000  6.152807e+000  3.750000e+000
      vertex -7.195293e+000  5.403349e+000  3.750000e+000
    endloop
  endfacet
  facet normal  0.000000e+000  0.000000e+000  9.999999e-001
    outer loop
      vertex -7.195293e+000  5.403349e+000  3.750000e+000
      vertex -7.236620e+000  6.152807e+000  3.750000e+000
      vertex -7.251431e+000  5.776122e+000  3.750000e+000
    endloop
  endfacet
  facet normal  0.000000e+000  0.000000e+000  1.000000e+000
    outer loop
      vertex -5.108532e+000 -7.880908e+000  3.750000e+000
      vertex -7.251431e+000 -5.776122e+000  3.750000e+000
      vertex -5.485423e+000 -7.872859e+000  3.750000e+000
    endloop
  endfacet
  facet normal  0.000000e+000  0.000000e+000  9.999999e-001
    outer loop
      vertex -5.485423e+000 -7.872859e+000  3.750000e+000
      vertex -7.251431e+000 -5.776122e+000  3.750000e+000
      vertex -7.236620e+000 -6.152807e+000  3.750000e+000
    endloop
  endfacet
  facet normal  0.000000e+000  0.000000e+000  1.000000e+000
    outer loop
      vertex -5.485423e+000 -7.872859e+000  3.750000e+000
      vertex -7.236620e+000 -6.152807e+000  3.750000e+000
      vertex -5.854107e+000 -7.794230e+000  3.750000e+000
    endloop
  endfacet
  facet normal  0.000000e+000  0.000000e+000  1.000000e+000
    outer loop
      vertex -5.854107e+000 -7.794230e+000  3.750000e+000
      vertex -7.236620e+000 -6.152807e+000  3.750000e+000
      vertex -7.151389e+000 -6.520021e+000  3.750000e+000
    endloop
  endfacet
  facet normal  0.000000e+000  0.000000e+000  1.000000e+000
    outer loop
      vertex -5.854107e+000 -7.794230e+000  3.750000e+000
      vertex -7.151389e+000 -6.520021e+000  3.750000e+000
      vertex -6.201488e+000 -7.647815e+000  3.750000e+000
    endloop
  endfacet
  facet normal  0.000000e+000  0.000000e+000  9.999999e-001
    outer loop
      vertex -6.201488e+000 -7.647815e+000  3.750000e+000
      vertex -7.151389e+000 -6.520021e+000  3.750000e+000
      vertex -6.998764e+000 -6.864719e+000  3.750000e+000
    endloop
  endfacet
  facet normal  0.000000e+000  0.000000e+000  1.000000e+000
    outer loop
      vertex -6.201488e+000 -7.647815e+000  3.750000e+000
      vertex -6.998764e+000 -6.864719e+000  3.750000e+000
      vertex -6.515224e+000 -7.438814e+000  3.750000e+000
    endloop
  endfacet
  facet normal  0.000000e+000  0.000000e+000  1.000000e+000
    outer loop
      vertex -6.515224e+000 -7.438814e+000  3.750000e+000
      vertex -6.998764e+000 -6.864719e+000  3.750000e+000
      vertex -6.784167e+000 -7.174654e+000  3.750000e+000
    endloop
  endfacet
  facet normal  1.666339e-001 -9.860188e-001  0.000000e+000
    outer loop
      vertex -4.736826e+000 -7.818091e+000 -3.750000e+000
      vertex -4.736826e+000 -7.818091e+000  3.750000e+000
      vertex -5.108532e+000 -7.880908e+000 -3.750000e+000
    endloop
  endfacet
  facet normal  1.666339e-001 -9.860188e-001  0.000000e+000
    outer loop
      vertex -5.108532e+000 -7.880908e+000 -3.750000e+000
      vertex -4.736826e+000 -7.818091e+000  3.750000e+000
      vertex -5.108532e+000 -7.880908e+000  3.750000e+000
    endloop
  endfacet
  facet normal -2.135151e-002 -9.997720e-001  -0.000000e+000
    outer loop
      vertex -5.108532e+000 -7.880908e+000 -3.750000e+000
      vertex -5.108532e+000 -7.880908e+000  3.750000e+000
      vertex -5.485423e+000 -7.872859e+000 -3.750000e+000
    endloop
  endfacet
  facet normal -2.135151e-002 -9.997720e-001  0.000000e+000
    outer loop
      vertex -5.485423e+000 -7.872859e+000 -3.750000e+000
      vertex -5.108532e+000 -7.880908e+000  3.750000e+000
      vertex -5.485423e+000 -7.872859e+000  3.750000e+000
    endloop
  endfacet
  facet normal -2.085782e-001 -9.780056e-001  -0.000000e+000
    outer loop
      vertex -5.485423e+000 -7.872859e+000 -3.750000e+000
      vertex -5.485423e+000 -7.872859e+000  3.750000e+000
      vertex -5.854107e+000 -7.794230e+000 -3.750000e+000
    endloop
  endfacet
  facet normal -2.085782e-001 -9.780056e-001  0.000000e+000
    outer loop
      vertex -5.854107e+000 -7.794230e+000 -3.750000e+000
      vertex -5.485423e+000 -7.872859e+000  3.750000e+000
      vertex -5.854107e+000 -7.794230e+000  3.750000e+000
    endloop
  endfacet
  facet normal -3.883949e-001 -9.214930e-001  -0.000000e+000
    outer loop
      vertex -5.854107e+000 -7.794230e+000 -3.750000e+000
      vertex -5.854107e+000 -7.794230e+000  3.750000e+000
      vertex -6.201488e+000 -7.647815e+000 -3.750000e+000
    endloop
  endfacet
  facet normal -3.883949e-001 -9.214930e-001  0.000000e+000
    outer loop
      vertex -6.201488e+000 -7.647815e+000 -3.750000e+000
      vertex -5.854107e+000 -7.794230e+000  3.750000e+000
      vertex -6.201488e+000 -7.647815e+000  3.750000e+000
    endloop
  endfacet
  facet normal -5.544135e-001 -8.322414e-001  -0.000000e+000
    outer loop
      vertex -6.201488e+000 -7.647815e+000 -3.750000e+000
      vertex -6.201488e+000 -7.647815e+000  3.750000e+000
      vertex -6.515224e+000 -7.438814e+000 -3.750000e+000
    endloop
  endfacet
  facet normal -5.544135e-001 -8.322414e-001  0.000000e+000
    outer loop
      vertex -6.515224e+000 -7.438814e+000 -3.750000e+000
      vertex -6.201488e+000 -7.647815e+000  3.750000e+000
      vertex -6.515224e+000 -7.438814e+000  3.750000e+000
    endloop
  endfacet
  facet normal -7.007342e-001 -7.134224e-001  -0.000000e+000
    outer loop
      vertex -6.515224e+000 -7.438814e+000 -3.750000e+000
      vertex -6.515224e+000 -7.438814e+000  3.750000e+000
      vertex -6.784167e+000 -7.174654e+000 -3.750000e+000
    endloop
  endfacet
  facet normal -7.007342e-001 -7.134224e-001  0.000000e+000
    outer loop
      vertex -6.784167e+000 -7.174654e+000 -3.750000e+000
      vertex -6.515224e+000 -7.438814e+000  3.750000e+000
      vertex -6.784167e+000 -7.174654e+000  3.750000e+000
    endloop
  endfacet
  facet normal -8.221591e-001 -5.692577e-001  -0.000000e+000
    outer loop
      vertex -6.784167e+000 -7.174654e+000 -3.750000e+000
      vertex -6.784167e+000 -7.174654e+000  3.750000e+000
      vertex -6.998764e+000 -6.864719e+000 -3.750000e+000
    endloop
  endfacet
  facet normal -8.221591e-001 -5.692577e-001  0.000000e+000
    outer loop
      vertex -6.998764e+000 -6.864719e+000 -3.750000e+000
      vertex -6.784167e+000 -7.174654e+000  3.750000e+000
      vertex -6.998764e+000 -6.864719e+000  3.750000e+000
    endloop
  endfacet
  facet normal -9.143757e-001 -4.048665e-001  -0.000000e+000
    outer loop
      vertex -6.998764e+000 -6.864719e+000 -3.750000e+000
      vertex -6.998764e+000 -6.864719e+000  3.750000e+000
      vertex -7.151389e+000 -6.520021e+000 -3.750000e+000
    endloop
  endfacet
  facet normal -9.143757e-001 -4.048665e-001  0.000000e+000
    outer loop
      vertex -7.151389e+000 -6.520021e+000 -3.750000e+000
      vertex -6.998764e+000 -6.864719e+000  3.750000e+000
      vertex -7.151389e+000 -6.520021e+000  3.750000e+000
    endloop
  endfacet
  facet normal -9.741057e-001 -2.260932e-001  -0.000000e+000
    outer loop
      vertex -7.151389e+000 -6.520021e+000 -3.750000e+000
      vertex -7.151389e+000 -6.520021e+000  3.750000e+000
      vertex -7.236620e+000 -6.152807e+000 -3.750000e+000
    endloop
  endfacet
  facet normal -9.741057e-001 -2.260932e-001  0.000000e+000
    outer loop
      vertex -7.236620e+000 -6.152807e+000 -3.750000e+000
      vertex -7.151389e+000 -6.520021e+000  3.750000e+000
      vertex -7.236620e+000 -6.152807e+000  3.750000e+000
    endloop
  endfacet
  facet normal -9.992279e-001 -3.928779e-002  -0.000000e+000
    outer loop
      vertex -7.236620e+000 -6.152807e+000 -3.750000e+000
      vertex -7.236620e+000 -6.152807e+000  3.750000e+000
      vertex -7.251431e+000 -5.776122e+000 -3.750000e+000
    endloop
  endfacet
  facet normal -9.992279e-001 -3.928779e-002  0.000000e+000
    outer loop
      vertex -7.251431e+000 -5.776122e+000 -3.750000e+000
      vertex -7.236620e+000 -6.152807e+000  3.750000e+000
      vertex -7.251431e+000 -5.776122e+000  3.750000e+000
    endloop
  endfacet
  facet normal -9.888499e-001  1.489155e-001  0.000000e+000
    outer loop
      vertex -7.251431e+000 -5.776122e+000 -3.750000e+000
      vertex -7.251431e+000 -5.776122e+000  3.750000e+000
      vertex -7.195293e+000 -5.403349e+000 -3.750000e+000
    endloop
  endfacet
  facet normal -9.888499e-001  1.489155e-001  0.000000e+000
    outer loop
      vertex -7.195293e+000 -5.403349e+000 -3.750000e+000
      vertex -7.251431e+000 -5.776122e+000  3.750000e+000
      vertex -7.195293e+000 -5.403349e+000  3.750000e+000
    endloop
  endfacet
  facet normal -9.433405e-001  3.318261e-001  0.000000e+000
    outer loop
      vertex -7.195293e+000 -5.403349e+000 -3.750000e+000
      vertex -7.195293e+000 -5.403349e+000  3.750000e+000
      vertex -7.070203e+000 -5.047732e+000 -3.750000e+000
    endloop
  endfacet
  facet normal -9.433405e-001  3.318261e-001  0.000000e+000
    outer loop
      vertex -7.070203e+000 -5.047732e+000 -3.750000e+000
      vertex -7.195293e+000 -5.403349e+000  3.750000e+000
      vertex -7.070203e+000 -5.047732e+000  3.750000e+000
    endloop
  endfacet
  facet normal -8.643159e-001  5.029493e-001  0.000000e+000
    outer loop
      vertex -7.070203e+000 -5.047732e+000 -3.750000e+000
      vertex -7.070203e+000 -5.047732e+000  3.750000e+000
      vertex -6.880603e+000 -4.721905e+000 -3.750000e+000
    endloop
  endfacet
  facet normal -8.643159e-001  5.029493e-001  0.000000e+000
    outer loop
      vertex -6.880603e+000 -4.721905e+000 -3.750000e+000
      vertex -7.070203e+000 -5.047732e+000  3.750000e+000
      vertex -6.880603e+000 -4.721905e+000  3.750000e+000
    endloop
  endfacet
  facet normal -7.545844e-001  6.562030e-001  0.000000e+000
    outer loop
      vertex -6.880603e+000 -4.721905e+000 -3.750000e+000
      vertex -6.880603e+000 -4.721905e+000  3.750000e+000
      vertex -6.633230e+000 -4.437445e+000 -3.750000e+000
    endloop
  endfacet
  facet normal -7.545844e-001  6.562030e-001  0.000000e+000
    outer loop
      vertex -6.633230e+000 -4.437445e+000 -3.750000e+000
      vertex -6.880603e+000 -4.721905e+000  3.750000e+000
      vertex -6.633230e+000 -4.437445e+000  3.750000e+000
    endloop
  endfacet
  facet normal -6.180443e-001  7.861432e-001  0.000000e+000
    outer loop
      vertex -6.633230e+000 -4.437445e+000 -3.750000e+000
      vertex -6.633230e+000 -4.437445e+000  3.750000e+000
      vertex -6.336873e+000 -4.204457e+000 -3.750000e+000
    endloop
  endfacet
  facet normal -6.180443e-001  7.861432e-001  0.000000e+000
    outer loop
      vertex -6.336873e+000 -4.204457e+000 -3.750000e+000
      vertex -6.633230e+000 -4.437445e+000  3.750000e+000
      vertex -6.336873e+000 -4.204457e+000  3.750000e+000
    endloop
  endfacet
  facet normal  2.588190e-001 -9.659258e-001  0.000000e+000
    outer loop
      vertex  2.811382e+000 -5.795555e+000 -3.750000e+000
      vertex  2.811382e+000 -5.795555e+000  3.750000e+000
      vertex -4.736826e+000 -7.818091e+000 -3.750000e+000
    endloop
  endfacet
  facet normal  2.588190e-001 -9.659258e-001  0.000000e+000
    outer loop
      vertex -4.736826e+000 -7.818091e+000 -3.750000e+000
      vertex  2.811382e+000 -5.795555e+000  3.750000e+000
      vertex -4.736826e+000 -7.818091e+000  3.750000e+000
    endloop
  endfacet
  facet normal  3.133440e-001  9.496397e-001  0.000000e+000
    outer loop
      vertex  2.811382e+000  5.795555e+000 -3.750000e+000
      vertex  2.811382e+000  5.795555e+000  3.750000e+000
      vertex  3.459593e+000  5.581671e+000 -3.750000e+000
    endloop
  endfacet
  facet normal  3.133440e-001  9.496397e-001  -0.000000e+000
    outer loop
      vertex  3.459593e+000  5.581671e+000 -3.750000e+000
      vertex  2.811382e+000  5.795555e+000  3.750000e+000
      vertex  3.459593e+000  5.581671e+000  3.750000e+000
    endloop
  endfacet
  facet normal  4.191765e-001  9.079048e-001  0.000000e+000
    outer loop
      vertex  3.459593e+000  5.581671e+000 -3.750000e+000
      vertex  3.459593e+000  5.581671e+000  3.750000e+000
      vertex  4.079317e+000  5.295547e+000 -3.750000e+000
    endloop
  endfacet
  facet normal  4.191765e-001  9.079048e-001  -0.000000e+000
    outer loop
      vertex  4.079317e+000  5.295547e+000 -3.750000e+000
      vertex  3.459593e+000  5.581671e+000  3.750000e+000
      vertex  4.079317e+000  5.295547e+000  3.750000e+000
    endloop
  endfacet
  facet normal  5.195842e-001  8.544193e-001  0.000000e+000
    outer loop
      vertex  4.079317e+000  5.295547e+000 -3.750000e+000
      vertex  4.079317e+000  5.295547e+000  3.750000e+000
      vertex  4.662531e+000  4.940886e+000 -3.750000e+000
    endloop
  endfacet
  facet normal  5.195842e-001  8.544193e-001  -0.000000e+000
    outer loop
      vertex  4.662531e+000  4.940886e+000 -3.750000e+000
      vertex  4.079317e+000  5.295547e+000  3.750000e+000
      vertex  4.662531e+000  4.940886e+000  3.750000e+000
    endloop
  endfacet
  facet normal  6.132666e-001  7.898760e-001  0.000000e+000
    outer loop
      vertex  4.662531e+000  4.940886e+000 -3.750000e+000
      vertex  4.662531e+000  4.940886e+000  3.750000e+000
      vertex  5.201690e+000  4.522278e+000 -3.750000e+000
    endloop
  endfacet
  facet normal  6.132666e-001  7.898760e-001  -0.000000e+000
    outer loop
      vertex  5.201690e+000  4.522278e+000 -3.750000e+000
      vertex  4.662531e+000  4.940886e+000  3.750000e+000
      vertex  5.201690e+000  4.522278e+000  3.750000e+000
    endloop
  endfacet
  facet normal  6.990127e-001  7.151092e-001  0.000000e+000
    outer loop
      vertex  5.201690e+000  4.522278e+000 -3.750000e+000
      vertex  5.201690e+000  4.522278e+000  3.750000e+000
      vertex  5.689814e+000  4.045142e+000 -3.750000e+000
    endloop
  endfacet
  facet normal  6.990127e-001  7.151092e-001  -0.000000e+000
    outer loop
      vertex  5.689814e+000  4.045142e+000 -3.750000e+000
      vertex  5.201690e+000  4.522278e+000  3.750000e+000
      vertex  5.689814e+000  4.045142e+000  3.750000e+000
    endloop
  endfacet
  facet normal  7.757110e-001  6.310883e-001  0.000000e+000
    outer loop
      vertex  5.689814e+000  4.045142e+000 -3.750000e+000
      vertex  5.689814e+000  4.045142e+000  3.750000e+000
      vertex  6.120586e+000  3.515652e+000 -3.750000e+000
    endloop
  endfacet
  facet normal  7.757110e-001  6.310883e-001  -0.000000e+000
    outer loop
      vertex  6.120586e+000  3.515652e+000 -3.750000e+000
      vertex  5.689814e+000  4.045142e+000  3.750000e+000
      vertex  6.120586e+000  3.515652e+000  3.750000e+000
    endloop
  endfacet
  facet normal  8.423709e-001  5.388983e-001  0.000000e+000
    outer loop
      vertex  6.120586e+000  3.515652e+000 -3.750000e+000
      vertex  6.120586e+000  3.515652e+000  3.750000e+000
      vertex  6.488431e+000  2.940661e+000 -3.750000e+000
    endloop
  endfacet
  facet normal  8.423709e-001  5.388983e-001  -0.000000e+000
    outer loop
      vertex  6.488431e+000  2.940661e+000 -3.750000e+000
      vertex  6.120586e+000  3.515652e+000  3.750000e+000
      vertex  6.488431e+000  2.940661e+000  3.750000e+000
    endloop
  endfacet
  facet normal  8.981276e-001  4.397350e-001  0.000000e+000
    outer loop
      vertex  6.488431e+000  2.940661e+000 -3.750000e+000
      vertex  6.488431e+000  2.940661e+000  3.750000e+000
      vertex  6.788588e+000  2.327612e+000 -3.750000e+000
    endloop
  endfacet
  facet normal  8.981276e-001  4.397350e-001  -0.000000e+000
    outer loop
      vertex  6.788588e+000  2.327612e+000 -3.750000e+000
      vertex  6.488431e+000  2.940661e+000  3.750000e+000
      vertex  6.788588e+000  2.327612e+000  3.750000e+000
    endloop
  endfacet
  facet normal  9.422609e-001  3.348797e-001  0.000000e+000
    outer loop
      vertex  6.788588e+000  2.327612e+000 -3.750000e+000
      vertex  6.788588e+000  2.327612e+000  3.750000e+000
      vertex  7.017172e+000  1.684437e+000 -3.750000e+000
    endloop
  endfacet
  facet normal  9.422609e-001  3.348797e-001  -0.000000e+000
    outer loop
      vertex  7.017172e+000  1.684437e+000 -3.750000e+000
      vertex  6.788588e+000  2.327612e+000  3.750000e+000
      vertex  7.017172e+000  1.684437e+000  3.750000e+000
    endloop
  endfacet
  facet normal  9.741990e-001  2.256905e-001  0.000000e+000
    outer loop
      vertex  7.017172e+000  1.684437e+000 -3.750000e+000
      vertex  7.017172e+000  1.684437e+000  3.750000e+000
      vertex  7.171225e+000  1.019462e+000 -3.750000e+000
    endloop
  endfacet
  facet normal  9.741990e-001  2.256905e-001  -0.000000e+000
    outer loop
      vertex  7.171225e+000  1.019462e+000 -3.750000e+000
      vertex  7.017172e+000  1.684437e+000  3.750000e+000
      vertex  7.171225e+000  1.019462e+000  3.750000e+000
    endloop
  endfacet
  facet normal  9.935288e-001  1.135798e-001  0.000000e+000
    outer loop
      vertex  7.171225e+000  1.019462e+000 -3.750000e+000
      vertex  7.171225e+000  1.019462e+000  3.750000e+000
      vertex  7.248753e+000  3.412932e-001 -3.750000e+000
    endloop
  endfacet
  facet normal  9.935288e-001  1.135798e-001  -0.000000e+000
    outer loop
      vertex  7.248753e+000  3.412932e-001 -3.750000e+000
      vertex  7.171225e+000  1.019462e+000  3.750000e+000
      vertex  7.248753e+000  3.412932e-001  3.750000e+000
    endloop
  endfacet
  facet normal  9.999999e-001  0.000000e+000  0.000000e+000
    outer loop
      vertex  7.248753e+000  3.412932e-001 -3.750000e+000
      vertex  7.248753e+000  3.412932e-001  3.750000e+000
      vertex  7.248753e+000 -3.412932e-001 -3.750000e+000
    endloop
  endfacet
  facet normal  9.999999e-001  0.000000e+000  0.000000e+000
    outer loop
      vertex  7.248753e+000 -3.412932e-001 -3.750000e+000
      vertex  7.248753e+000  3.412932e-001  3.750000e+000
      vertex  7.248753e+000 -3.412932e-001  3.750000e+000
    endloop
  endfacet
  facet normal  9.935288e-001 -1.135798e-001  0.000000e+000
    outer loop
      vertex  7.248753e+000 -3.412932e-001 -3.750000e+000
      vertex  7.248753e+000 -3.412932e-001  3.750000e+000
      vertex  7.171225e+000 -1.019462e+000 -3.750000e+000
    endloop
  endfacet
  facet normal  9.935288e-001 -1.135798e-001  0.000000e+000
    outer loop
      vertex  7.171225e+000 -1.019462e+000 -3.750000e+000
      vertex  7.248753e+000 -3.412932e-001  3.750000e+000
      vertex  7.171225e+000 -1.019462e+000  3.750000e+000
    endloop
  endfacet
  facet normal  9.741990e-001 -2.256905e-001  0.000000e+000
    outer loop
      vertex  7.171225e+000 -1.019462e+000 -3.750000e+000
      vertex  7.171225e+000 -1.019462e+000  3.750000e+000
      vertex  7.017172e+000 -1.684437e+000 -3.750000e+000
    endloop
  endfacet
  facet normal  9.741990e-001 -2.256905e-001  0.000000e+000
    outer loop
      vertex  7.017172e+000 -1.684437e+000 -3.750000e+000
      vertex  7.171225e+000 -1.019462e+000  3.750000e+000
      vertex  7.017172e+000 -1.684437e+000  3.750000e+000
    endloop
  endfacet
  facet normal  9.422609e-001 -3.348797e-001  0.000000e+000
    outer loop
      vertex  7.017172e+000 -1.684437e+000 -3.750000e+000
      vertex  7.017172e+000 -1.684437e+000  3.750000e+000
      vertex  6.788588e+000 -2.327612e+000 -3.750000e+000
    endloop
  endfacet
  facet normal  9.422609e-001 -3.348797e-001  0.000000e+000
    outer loop
      vertex  6.788588e+000 -2.327612e+000 -3.750000e+000
      vertex  7.017172e+000 -1.684437e+000  3.750000e+000
      vertex  6.788588e+000 -2.327612e+000  3.750000e+000
    endloop
  endfacet
  facet normal  8.981276e-001 -4.397350e-001  0.000000e+000
    outer loop
      vertex  6.788588e+000 -2.327612e+000 -3.750000e+000
      vertex  6.788588e+000 -2.327612e+000  3.750000e+000
      vertex  6.488431e+000 -2.940661e+000 -3.750000e+000
    endloop
  endfacet
  facet normal  8.981276e-001 -4.397350e-001  0.000000e+000
    outer loop
      vertex  6.488431e+000 -2.940661e+000 -3.750000e+000
      vertex  6.788588e+000 -2.327612e+000  3.750000e+000
      vertex  6.488431e+000 -2.940661e+000  3.750000e+000
    endloop
  endfacet
  facet normal  8.423709e-001 -5.388983e-001  0.000000e+000
    outer loop
      vertex  6.488431e+000 -2.940661e+000 -3.750000e+000
      vertex  6.488431e+000 -2.940661e+000  3.750000e+000
      vertex  6.120586e+000 -3.515652e+000 -3.750000e+000
    endloop
  endfacet
  facet normal  8.423709e-001 -5.388983e-001  0.000000e+000
    outer loop
      vertex  6.120586e+000 -3.515652e+000 -3.750000e+000
      vertex  6.488431e+000 -2.940661e+000  3.750000e+000
      vertex  6.120586e+000 -3.515652e+000  3.750000e+000
    endloop
  endfacet
  facet normal  7.757110e-001 -6.310883e-001  0.000000e+000
    outer loop
      vertex  6.120586e+000 -3.515652e+000 -3.750000e+000
      vertex  6.120586e+000 -3.515652e+000  3.750000e+000
      vertex  5.689814e+000 -4.045142e+000 -3.750000e+000
    endloop
  endfacet
  facet normal  7.757110e-001 -6.310883e-001  0.000000e+000
    outer loop
      vertex  5.689814e+000 -4.045142e+000 -3.750000e+000
      vertex  6.120586e+000 -3.515652e+000  3.750000e+000
      vertex  5.689814e+000 -4.045142e+000  3.750000e+000
    endloop
  endfacet
  facet normal  6.990127e-001 -7.151092e-001  0.000000e+000
    outer loop
      vertex  5.689814e+000 -4.045142e+000 -3.750000e+000
      vertex  5.689814e+000 -4.045142e+000  3.750000e+000
      vertex  5.201690e+000 -4.522278e+000 -3.750000e+000
    endloop
  endfacet
  facet normal  6.990127e-001 -7.151092e-001  0.000000e+000
    outer loop
      vertex  5.201690e+000 -4.522278e+000 -3.750000e+000
      vertex  5.689814e+000 -4.045142e+000  3.750000e+000
      vertex  5.201690e+000 -4.522278e+000  3.750000e+000
    endloop
  endfacet
  facet normal  6.132666e-001 -7.898760e-001  0.000000e+000
    outer loop
      vertex  5.201690e+000 -4.522278e+000 -3.750000e+000
      vertex  5.201690e+000 -4.522278e+000  3.750000e+000
      vertex  4.662531e+000 -4.940886e+000 -3.750000e+000
    endloop
  endfacet
  facet normal  6.132666e-001 -7.898760e-001  0.000000e+000
    outer loop
      vertex  4.662531e+000 -4.940886e+000 -3.750000e+000
      vertex  5.201690e+000 -4.522278e+000  3.750000e+000
      vertex  4.662531e+000 -4.940886e+000  3.750000e+000
    endloop
  endfacet
  facet normal  5.195842e-001 -8.544193e-001  0.000000e+000
    outer loop
      vertex  4.662531e+000 -4.940886e+000 -3.750000e+000
      vertex  4.662531e+000 -4.940886e+000  3.750000e+000
      vertex  4.079317e+000 -5.295547e+000 -3.750000e+000
    endloop
  endfacet
  facet normal  5.195842e-001 -8.544193e-001  0.000000e+000
    outer loop
      vertex  4.079317e+000 -5.295547e+000 -3.750000e+000
      vertex  4.662531e+000 -4.940886e+000  3.750000e+000
      vertex  4.079317e+000 -5.295547e+000  3.750000e+000
    endloop
  endfacet
  facet normal  4.191765e-001 -9.079048e-001  0.000000e+000
    outer loop
      vertex  4.079317e+000 -5.295547e+000 -3.750000e+000
      vertex  4.079317e+000 -5.295547e+000  3.750000e+000
      vertex  3.459593e+000 -5.581671e+000 -3.750000e+000
    endloop
  endfacet
  facet normal  4.191765e-001 -9.079048e-001  0.000000e+000
    outer loop
      vertex  3.459593e+000 -5.581671e+000 -3.750000e+000
      vertex  4.079317e+000 -5.295547e+000  3.750000e+000
      vertex  3.459593e+000 -5.581671e+000  3.750000e+000
    endloop
  endfacet
  facet normal  3.133440e-001 -9.496397e-001  0.000000e+000
    outer loop
      vertex  3.459593e+000 -5.581671e+000 -3.750000e+000
      vertex  3.459593e+000 -5.581671e+000  3.750000e+000
      vertex  2.811382e+000 -5.795555e+000 -3.750000e+000
    endloop
  endfacet
  facet normal  3.133440e-001 -9.496397e-001  0.000000e+000
    outer loop
      vertex  2.811382e+000 -5.795555e+000 -3.750000e+000
      vertex  3.459593e+000 -5.581671e+000  3.750000e+000
      vertex  2.811382e+000 -5.795555e+000  3.750000e+000
    endloop
  endfacet
  facet normal  2.588190e-001  9.659258e-001  0.000000e+000
    outer loop
      vertex  2.811382e+000  5.795555e+000 -3.750000e+000
      vertex -4.736826e+000  7.818091e+000 -3.750000e+000
      vertex  2.811382e+000  5.795555e+000  3.750000e+000
    endloop
  endfacet
  facet normal  2.588190e-001  9.659258e-001  0.000000e+000
    outer loop
      vertex  2.811382e+000  5.795555e+000  3.750000e+000
      vertex -4.736826e+000  7.818091e+000 -3.750000e+000
      vertex -4.736826e+000  7.818091e+000  3.750000e+000
    endloop
  endfacet
  facet normal -6.180443e-001 -7.861432e-001  -0.000000e+000
    outer loop
      vertex -6.336873e+000  4.204457e+000 -3.750000e+000
      vertex -6.336873e+000  4.204457e+000  3.750000e+000
      vertex -6.633230e+000  4.437445e+000 -3.750000e+000
    endloop
  endfacet
  facet normal -6.180443e-001 -7.861432e-001  0.000000e+000
    outer loop
      vertex -6.633230e+000  4.437445e+000 -3.750000e+000
      vertex -6.336873e+000  4.204457e+000  3.750000e+000
      vertex -6.633230e+000  4.437445e+000  3.750000e+000
    endloop
  endfacet
  facet normal -7.545844e-001 -6.562030e-001  -0.000000e+000
    outer loop
      vertex -6.633230e+000  4.437445e+000 -3.750000e+000
      vertex -6.633230e+000  4.437445e+000  3.750000e+000
      vertex -6.880603e+000  4.721905e+000 -3.750000e+000
    endloop
  endfacet
  facet normal -7.545844e-001 -6.562030e-001  0.000000e+000
    outer loop
      vertex -6.880603e+000  4.721905e+000 -3.750000e+000
      vertex -6.633230e+000  4.437445e+000  3.750000e+000
      vertex -6.880603e+000  4.721905e+000  3.750000e+000
    endloop
  endfacet
  facet normal -8.643159e-001 -5.029493e-001  -0.000000e+000
    outer loop
      vertex -6.880603e+000  4.721905e+000 -3.750000e+000
      vertex -6.880603e+000  4.721905e+000  3.750000e+000
      vertex -7.070203e+000  5.047732e+000 -3.750000e+000
    endloop
  endfacet
  facet normal -8.643159e-001 -5.029493e-001  0.000000e+000
    outer loop
      vertex -7.070203e+000  5.047732e+000 -3.750000e+000
      vertex -6.880603e+000  4.721905e+000  3.750000e+000
      vertex -7.070203e+000  5.047732e+000  3.750000e+000
    endloop
  endfacet
  facet normal -9.433405e-001 -3.318261e-001  -0.000000e+000
    outer loop
      vertex -7.070203e+000  5.047732e+000 -3.750000e+000
      vertex -7.070203e+000  5.047732e+000  3.750000e+000
      vertex -7.195293e+000  5.403349e+000 -3.750000e+000
    endloop
  endfacet
  facet normal -9.433405e-001 -3.318261e-001  0.000000e+000
    outer loop
      vertex -7.195293e+000  5.403349e+000 -3.750000e+000
      vertex -7.070203e+000  5.047732e+000  3.750000e+000
      vertex -7.195293e+000  5.403349e+000  3.750000e+000
    endloop
  endfacet
  facet normal -9.888499e-001 -1.489155e-001  -0.000000e+000
    outer loop
      vertex -7.195293e+000  5.403349e+000 -3.750000e+000
      vertex -7.195293e+000  5.403349e+000  3.750000e+000
      vertex -7.251431e+000  5.776122e+000 -3.750000e+000
    endloop
  endfacet
  facet normal -9.888499e-001 -1.489155e-001  0.000000e+000
    outer loop
      vertex -7.251431e+000  5.776122e+000 -3.750000e+000
      vertex -7.195293e+000  5.403349e+000  3.750000e+000
      vertex -7.251431e+000  5.776122e+000  3.750000e+000
    endloop
  endfacet
  facet normal -9.992279e-001  3.928779e-002  0.000000e+000
    outer loop
      vertex -7.251431e+000  5.776122e+000 -3.750000e+000
      vertex -7.251431e+000  5.776122e+000  3.750000e+000
      vertex -7.236620e+000  6.152807e+000 -3.750000e+000
    endloop
  endfacet
  facet normal -9.992279e-001  3.928779e-002  0.000000e+000
    outer loop
      vertex -7.236620e+000  6.152807e+000 -3.750000e+000
      vertex -7.251431e+000  5.776122e+000  3.750000e+000
      vertex -7.236620e+000  6.152807e+000  3.750000e+000
    endloop
  endfacet
  facet normal -9.741057e-001  2.260932e-001  0.000000e+000
    outer loop
      vertex -7.236620e+000  6.152807e+000 -3.750000e+000
      vertex -7.236620e+000  6.152807e+000  3.750000e+000
      vertex -7.151389e+000  6.520021e+000 -3.750000e+000
    endloop
  endfacet
  facet normal -9.741057e-001  2.260932e-001  0.000000e+000
    outer loop
      vertex -7.151389e+000  6.520021e+000 -3.750000e+000
      vertex -7.236620e+000  6.152807e+000  3.750000e+000
      vertex -7.151389e+000  6.520021e+000  3.750000e+000
    endloop
  endfacet
  facet normal -9.143757e-001  4.048665e-001  0.000000e+000
    outer loop
      vertex -7.151389e+000  6.520021e+000 -3.750000e+000
      vertex -7.151389e+000  6.520021e+000  3.750000e+000
      vertex -6.998764e+000  6.864719e+000 -3.750000e+000
    endloop
  endfacet
  facet normal -9.143757e-001  4.048665e-001  0.000000e+000
    outer loop
      vertex -6.998764e+000  6.864719e+000 -3.750000e+000
      vertex -7.151389e+000  6.520021e+000  3.750000e+000
      vertex -6.998764e+000  6.864719e+000  3.750000e+000
    endloop
  endfacet
  facet normal -8.221591e-001  5.692577e-001  0.000000e+000
    outer loop
      vertex -6.998764e+000  6.864719e+000 -3.750000e+000
      vertex -6.998764e+000  6.864719e+000  3.750000e+000
      vertex -6.784167e+000  7.174654e+000 -3.750000e+000
    endloop
  endfacet
  facet normal -8.221591e-001  5.692577e-001  0.000000e+000
    outer loop
      vertex -6.784167e+000  7.174654e+000 -3.750000e+000
      vertex -6.998764e+000  6.864719e+000  3.750000e+000
      vertex -6.784167e+000  7.174654e+000  3.750000e+000
    endloop
  endfacet
  facet normal -7.007342e-001  7.134224e-001  0.000000e+000
    outer loop
      vertex -6.784167e+000  7.174654e+000 -3.750000e+000
      vertex -6.784167e+000  7.174654e+000  3.750000e+000
      vertex -6.515224e+000  7.438814e+000 -3.750000e+000
    endloop
  endfacet
  facet normal -7.007342e-001  7.134224e-001  0.000000e+000
    outer loop
      vertex -6.515224e+000  7.438814e+000 -3.750000e+000
      vertex -6.784167e+000  7.174654e+000  3.750000e+000
      vertex -6.515224e+000  7.438814e+000  3.750000e+000
    endloop
  endfacet
  facet normal -5.544135e-001  8.322414e-001  0.000000e+000
    outer loop
      vertex -6.515224e+000  7.438814e+000 -3.750000e+000
      vertex -6.515224e+000  7.438814e+000  3.750000e+000
      vertex -6.201488e+000  7.647815e+000 -3.750000e+000
    endloop
  endfacet
  facet normal -5.544135e-001  8.322414e-001  0.000000e+000
    outer loop
      vertex -6.201488e+000  7.647815e+000 -3.750000e+000
      vertex -6.515224e+000  7.438814e+000  3.750000e+000
      vertex -6.201488e+000  7.647815e+000  3.750000e+000
    endloop
  endfacet
  facet normal -3.883949e-001  9.214930e-001  0.000000e+000
    outer loop
      vertex -6.201488e+000  7.647815e+000 -3.750000e+000
      vertex -6.201488e+000  7.647815e+000  3.750000e+000
      vertex -5.854107e+000  7.794230e+000 -3.750000e+000
    endloop
  endfacet
  facet normal -3.883949e-001  9.214930e-001  0.000000e+000
    outer loop
      vertex -5.854107e+000  7.794230e+000 -3.750000e+000
      vertex -6.201488e+000  7.647815e+000  3.750000e+000
      vertex -5.854107e+000  7.794230e+000  3.750000e+000
    endloop
  endfacet
  facet normal -2.085782e-001  9.780056e-001  0.000000e+000
    outer loop
      vertex -5.854107e+000  7.794230e+000 -3.750000e+000
      vertex -5.854107e+000  7.794230e+000  3.750000e+000
      vertex -5.485423e+000  7.872859e+000 -3.750000e+000
    endloop
  endfacet
  facet normal -2.085782e-001  9.780056e-001  0.000000e+000
    outer loop
      vertex -5.485423e+000  7.872859e+000 -3.750000e+000
      vertex -5.854107e+000  7.794230e+000  3.750000e+000
      vertex -5.485423e+000  7.872859e+000  3.750000e+000
    endloop
  endfacet
  facet normal -2.135151e-002  9.997720e-001  0.000000e+000
    outer loop
      vertex -5.485423e+000  7.872859e+000 -3.750000e+000
      vertex -5.485423e+000  7.872859e+000  3.750000e+000
      vertex -5.108532e+000  7.880908e+000 -3.750000e+000
    endloop
  endfacet
  facet normal -2.135151e-002  9.997720e-001  0.000000e+000
    outer loop
      vertex -5.108532e+000  7.880908e+000 -3.750000e+000
      vertex -5.485423e+000  7.872859e+000  3.750000e+000
      vertex -5.108532e+000  7.880908e+000  3.750000e+000
    endloop
  endfacet
  facet normal  1.666339e-001  9.860188e-001  0.000000e+000
    outer loop
      vertex -5.108532e+000  7.880908e+000 -3.750000e+000
      vertex -5.108532e+000  7.880908e+000  3.750000e+000
      vertex -4.736826e+000  7.818091e+000 -3.750000e+000
    endloop
  endfacet
  facet normal  1.666339e-001  9.860188e-001  -0.000000e+000
    outer loop
      vertex -4.736826e+000  7.818091e+000 -3.750000e+000
      vertex -5.108532e+000  7.880908e+000  3.750000e+000
      vertex -4.736826e+000  7.818091e+000  3.750000e+000
    endloop
  endfacet
  facet normal -9.980516e-001 -6.239297e-002  -0.000000e+000
    outer loop
      vertex -4.042892e+000  2.295044e-010 -3.750000e+000
      vertex -4.081820e+000  6.227090e-001  3.750000e+000
      vertex -4.081820e+000  6.227090e-001 -3.750000e+000
    endloop
  endfacet
  facet normal -9.825109e-001 -1.862053e-001  0.000000e+000
    outer loop
      vertex -4.081820e+000  6.227090e-001 -3.750000e+000
      vertex -4.081820e+000  6.227090e-001  3.750000e+000
      vertex -4.197999e+000  1.235722e+000  3.750000e+000
    endloop
  endfacet
  facet normal -9.825109e-001 -1.862053e-001  -0.000000e+000
    outer loop
      vertex -4.081820e+000  6.227090e-001 -3.750000e+000
      vertex -4.197999e+000  1.235722e+000  3.750000e+000
      vertex -4.197999e+000  1.235722e+000 -3.750000e+000
    endloop
  endfacet
  facet normal -9.516708e-001 -3.071202e-001  0.000000e+000
    outer loop
      vertex -4.197999e+000  1.235722e+000 -3.750000e+000
      vertex -4.197999e+000  1.235722e+000  3.750000e+000
      vertex -4.389618e+000  1.829492e+000  3.750000e+000
    endloop
  endfacet
  facet normal -9.516708e-001 -3.071202e-001  -0.000000e+000
    outer loop
      vertex -4.197999e+000  1.235722e+000 -3.750000e+000
      vertex -4.389618e+000  1.829492e+000  3.750000e+000
      vertex -4.389618e+000  1.829492e+000 -3.750000e+000
    endloop
  endfacet
  facet normal -9.060125e-001 -4.232511e-001  0.000000e+000
    outer loop
      vertex -4.389618e+000  1.829492e+000 -3.750000e+000
      vertex -4.389618e+000  1.829492e+000  3.750000e+000
      vertex -4.653695e+000  2.394776e+000  3.750000e+000
    endloop
  endfacet
  facet normal -9.060125e-001 -4.232511e-001  -0.000000e+000
    outer loop
      vertex -4.389618e+000  1.829492e+000 -3.750000e+000
      vertex -4.653695e+000  2.394776e+000  3.750000e+000
      vertex -4.653695e+000  2.394776e+000 -3.750000e+000
    endloop
  endfacet
  facet normal -8.462456e-001 -5.327931e-001  0.000000e+000
    outer loop
      vertex -4.653695e+000  2.394776e+000 -3.750000e+000
      vertex -4.653695e+000  2.394776e+000  3.750000e+000
      vertex -4.986118e+000  2.922769e+000  3.750000e+000
    endloop
  endfacet
  facet normal -8.462456e-001 -5.327931e-001  -0.000000e+000
    outer loop
      vertex -4.653695e+000  2.394776e+000 -3.750000e+000
      vertex -4.986118e+000  2.922769e+000  3.750000e+000
      vertex -4.986118e+000  2.922769e+000 -3.750000e+000
    endloop
  endfacet
  facet normal -7.733026e-001 -6.340371e-001  0.000000e+000
    outer loop
      vertex -4.986118e+000  2.922769e+000 -3.750000e+000
      vertex -4.986118e+000  2.922769e+000  3.750000e+000
      vertex -5.381709e+000  3.405252e+000  3.750000e+000
    endloop
  endfacet
  facet normal -7.733026e-001 -6.340371e-001  -0.000000e+000
    outer loop
      vertex -4.986118e+000  2.922769e+000 -3.750000e+000
      vertex -5.381709e+000  3.405252e+000  3.750000e+000
      vertex -5.381709e+000  3.405252e+000 -3.750000e+000
    endloop
  endfacet
  facet normal -6.883175e-001 -7.254095e-001  0.000000e+000
    outer loop
      vertex -5.381709e+000  3.405252e+000 -3.750000e+000
      vertex -5.381709e+000  3.405252e+000  3.750000e+000
      vertex -5.834310e+000  3.834710e+000  3.750000e+000
    endloop
  endfacet
  facet normal -6.883175e-001 -7.254095e-001  -0.000000e+000
    outer loop
      vertex -5.381709e+000  3.405252e+000 -3.750000e+000
      vertex -5.834310e+000  3.834710e+000  3.750000e+000
      vertex -5.834310e+000  3.834710e+000 -3.750000e+000
    endloop
  endfacet
  facet normal -5.926145e-001 -8.054861e-001  0.000000e+000
    outer loop
      vertex -5.834310e+000  3.834710e+000 -3.750000e+000
      vertex -5.834310e+000  3.834710e+000  3.750000e+000
      vertex -6.336873e+000  4.204457e+000  3.750000e+000
    endloop
  endfacet
  facet normal -5.926145e-001 -8.054861e-001  -0.000000e+000
    outer loop
      vertex -5.834310e+000  3.834710e+000 -3.750000e+000
      vertex -6.336873e+000  4.204457e+000  3.750000e+000
      vertex -6.336873e+000  4.204457e+000 -3.750000e+000
    endloop
  endfacet
  facet normal -9.980516e-001 -6.239297e-002 -1.897214e-012
    outer loop
      vertex -4.081820e+000  6.227090e-001  3.750000e+000
      vertex -4.042892e+000  2.295044e-010 -3.750000e+000
      vertex -4.042892e+000  1.448175e-012  3.750000e+000
    endloop
  endfacet
  facet normal -9.980516e-001  6.239297e-002  1.897214e-012
    outer loop
      vertex -4.042892e+000  1.448175e-012  3.750000e+000
      vertex -4.042892e+000  2.295044e-010 -3.750000e+000
      vertex -4.081820e+000 -6.227090e-001 -3.750000e+000
    endloop
  endfacet
  facet normal -9.980516e-001  6.239297e-002  0.000000e+000
    outer loop
      vertex -4.042892e+000  1.448175e-012  3.750000e+000
      vertex -4.081820e+000 -6.227090e-001 -3.750000e+000
      vertex -4.081820e+000 -6.227090e-001  3.750000e+000
    endloop
  endfacet
  facet normal -9.825109e-001  1.862053e-001  0.000000e+000
    outer loop
      vertex -4.081820e+000 -6.227090e-001  3.750000e+000
      vertex -4.081820e+000 -6.227090e-001 -3.750000e+000
      vertex -4.197999e+000 -1.235722e+000 -3.750000e+000
    endloop
  endfacet
  facet normal -9.825109e-001  1.862053e-001  0.000000e+000
    outer loop
      vertex -4.081820e+000 -6.227090e-001  3.750000e+000
      vertex -4.197999e+000 -1.235722e+000 -3.750000e+000
      vertex -4.197999e+000 -1.235722e+000  3.750000e+000
    endloop
  endfacet
  facet normal -9.516708e-001  3.071202e-001  0.000000e+000
    outer loop
      vertex -4.197999e+000 -1.235722e+000  3.750000e+000
      vertex -4.197999e+000 -1.235722e+000 -3.750000e+000
      vertex -4.389618e+000 -1.829492e+000 -3.750000e+000
    endloop
  endfacet
  facet normal -9.516708e-001  3.071202e-001  0.000000e+000
    outer loop
      vertex -4.197999e+000 -1.235722e+000  3.750000e+000
      vertex -4.389618e+000 -1.829492e+000 -3.750000e+000
      vertex -4.389618e+000 -1.829492e+000  3.750000e+000
    endloop
  endfacet
  facet normal -9.060125e-001  4.232511e-001  0.000000e+000
    outer loop
      vertex -4.389618e+000 -1.829492e+000  3.750000e+000
      vertex -4.389618e+000 -1.829492e+000 -3.750000e+000
      vertex -4.653695e+000 -2.394776e+000 -3.750000e+000
    endloop
  endfacet
  facet normal -9.060125e-001  4.232511e-001  0.000000e+000
    outer loop
      vertex -4.389618e+000 -1.829492e+000  3.750000e+000
      vertex -4.653695e+000 -2.394776e+000 -3.750000e+000
      vertex -4.653695e+000 -2.394776e+000  3.750000e+000
    endloop
  endfacet
  facet normal -8.462456e-001  5.327931e-001  0.000000e+000
    outer loop
      vertex -4.653695e+000 -2.394776e+000  3.750000e+000
      vertex -4.653695e+000 -2.394776e+000 -3.750000e+000
      vertex -4.986118e+000 -2.922769e+000 -3.750000e+000
    endloop
  endfacet
  facet normal -8.462456e-001  5.327931e-001  0.000000e+000
    outer loop
      vertex -4.653695e+000 -2.394776e+000  3.750000e+000
      vertex -4.986118e+000 -2.922769e+000 -3.750000e+000
      vertex -4.986118e+000 -2.922769e+000  3.750000e+000
    endloop
  endfacet
  facet normal -7.733026e-001  6.340371e-001  0.000000e+000
    outer loop
      vertex -4.986118e+000 -2.922769e+000  3.750000e+000
      vertex -4.986118e+000 -2.922769e+000 -3.750000e+000
      vertex -5.381709e+000 -3.405252e+000 -3.750000e+000
    endloop
  endfacet
  facet normal -7.733026e-001  6.340371e-001  0.000000e+000
    outer loop
      vertex -4.986118e+000 -2.922769e+000  3.750000e+000
      vertex -5.381709e+000 -3.405252e+000 -3.750000e+000
      vertex -5.381709e+000 -3.405252e+000  3.750000e+000
    endloop
  endfacet
  facet normal -6.883175e-001  7.254095e-001  0.000000e+000
    outer loop
      vertex -5.381709e+000 -3.405252e+000  3.750000e+000
      vertex -5.381709e+000 -3.405252e+000 -3.750000e+000
      vertex -5.834310e+000 -3.834710e+000 -3.750000e+000
    endloop
  endfacet
  facet normal -6.883175e-001  7.254095e-001  0.000000e+000
    outer loop
      vertex -5.381709e+000 -3.405252e+000  3.750000e+000
      vertex -5.834310e+000 -3.834710e+000 -3.750000e+000
      vertex -5.834310e+000 -3.834710e+000  3.750000e+000
    endloop
  endfacet
  facet normal -5.926145e-001  8.054861e-001  0.000000e+000
    outer loop
      vertex -5.834310e+000 -3.834710e+000  3.750000e+000
      vertex -5.834310e+000 -3.834710e+000 -3.750000e+000
      vertex -6.336873e+000 -4.204457e+000 -3.750000e+000
    endloop
  endfacet
  facet normal -5.926145e-001  8.054861e-001  0.000000e+000
    outer loop
      vertex -5.834310e+000 -3.834710e+000  3.750000e+000
      vertex -6.336873e+000 -4.204457e+000 -3.750000e+000
      vertex -6.336873e+000 -4.204457e+000  3.750000e+000
    endloop
  endfacet
  facet normal  0.000000e+000  0.000000e+000 -1.000000e+000
    outer loop
      vertex -7.195293e+000  5.403349e+000 -3.750000e+000
      vertex -5.381709e+000  3.405252e+000 -3.750000e+000
      vertex -5.834310e+000  3.834710e+000 -3.750000e+000
    endloop
  endfacet
  facet normal  0.000000e+000  0.000000e+000 -1.000000e+000
    outer loop
      vertex -5.834310e+000  3.834710e+000 -3.750000e+000
      vertex -7.070203e+000  5.047732e+000 -3.750000e+000
      vertex -7.195293e+000  5.403349e+000 -3.750000e+000
    endloop
  endfacet
  facet normal  0.000000e+000  0.000000e+000 -1.000000e+000
    outer loop
      vertex -5.381709e+000  3.405252e+000 -3.750000e+000
      vertex -7.195293e+000  5.403349e+000 -3.750000e+000
      vertex  3.459593e+000 -5.581671e+000 -3.750000e+000
    endloop
  endfacet
  facet normal  -0.000000e+000  -0.000000e+000 -1.000000e+000
    outer loop
      vertex -4.736826e+000  7.818091e+000 -3.750000e+000
      vertex  2.811382e+000  5.795555e+000 -3.750000e+000
      vertex  7.171225e+000  1.019462e+000 -3.750000e+000
    endloop
  endfacet
  facet normal  -0.000000e+000  -0.000000e+000 -1.000000e+000
    outer loop
      vertex -4.736826e+000  7.818091e+000 -3.750000e+000
      vertex  7.171225e+000  1.019462e+000 -3.750000e+000
      vertex  7.248753e+000  3.412932e-001 -3.750000e+000
    endloop
  endfacet
  facet normal  -0.000000e+000  -0.000000e+000 -1.000000e+000
    outer loop
      vertex -4.736826e+000  7.818091e+000 -3.750000e+000
      vertex  7.248753e+000  3.412932e-001 -3.750000e+000
      vertex  7.248753e+000 -3.412932e-001 -3.750000e+000
    endloop
  endfacet
  facet normal  -0.000000e+000  0.000000e+000 -1.000000e+000
    outer loop
      vertex -4.736826e+000  7.818091e+000 -3.750000e+000
      vertex  7.248753e+000 -3.412932e-001 -3.750000e+000
      vertex  7.171225e+000 -1.019462e+000 -3.750000e+000
    endloop
  endfacet
  facet normal  -0.000000e+000  0.000000e+000 -1.000000e+000
    outer loop
      vertex -4.736826e+000  7.818091e+000 -3.750000e+000
      vertex  7.171225e+000 -1.019462e+000 -3.750000e+000
      vertex  7.017172e+000 -1.684437e+000 -3.750000e+000
    endloop
  endfacet
  facet normal  -0.000000e+000  0.000000e+000 -1.000000e+000
    outer loop
      vertex -4.736826e+000  7.818091e+000 -3.750000e+000
      vertex  7.017172e+000 -1.684437e+000 -3.750000e+000
      vertex  6.788588e+000 -2.327612e+000 -3.750000e+000
    endloop
  endfacet
  facet normal  -0.000000e+000  0.000000e+000 -1.000000e+000
    outer loop
      vertex -4.736826e+000  7.818091e+000 -3.750000e+000
      vertex  6.788588e+000 -2.327612e+000 -3.750000e+000
      vertex  6.488431e+000 -2.940661e+000 -3.750000e+000
    endloop
  endfacet
  facet normal  -0.000000e+000  0.000000e+000 -9.999999e-001
    outer loop
      vertex -4.736826e+000  7.818091e+000 -3.750000e+000
      vertex  6.488431e+000 -2.940661e+000 -3.750000e+000
      vertex  6.120586e+000 -3.515652e+000 -3.750000e+000
    endloop
  endfacet
  facet normal  0.000000e+000  0.000000e+000 -1.000000e+000
    outer loop
      vertex  2.811382e+000 -5.795555e+000 -3.750000e+000
      vertex -4.736826e+000 -7.818091e+000 -3.750000e+000
      vertex -4.081820e+000 -6.227090e-001 -3.750000e+000
    endloop
  endfacet
  facet normal  0.000000e+000  0.000000e+000 -1.000000e+000
    outer loop
      vertex  2.811382e+000 -5.795555e+000 -3.750000e+000
      vertex -4.081820e+000 -6.227090e-001 -3.750000e+000
      vertex -4.042892e+000  2.295044e-010 -3.750000e+000
    endloop
  endfacet
  facet normal  0.000000e+000  0.000000e+000 -1.000000e+000
    outer loop
      vertex  2.811382e+000 -5.795555e+000 -3.750000e+000
      vertex -4.042892e+000  2.295044e-010 -3.750000e+000
      vertex -4.081820e+000  6.227090e-001 -3.750000e+000
    endloop
  endfacet
  facet normal  0.000000e+000  0.000000e+000 -1.000000e+000
    outer loop
      vertex  2.811382e+000 -5.795555e+000 -3.750000e+000
      vertex -4.081820e+000  6.227090e-001 -3.750000e+000
      vertex -4.197999e+000  1.235722e+000 -3.750000e+000
    endloop
  endfacet
  facet normal  0.000000e+000  0.000000e+000 -1.000000e+000
    outer loop
      vertex  2.811382e+000 -5.795555e+000 -3.750000e+000
      vertex -4.197999e+000  1.235722e+000 -3.750000e+000
      vertex -4.389618e+000  1.829492e+000 -3.750000e+000
    endloop
  endfacet
  facet normal  0.000000e+000  0.000000e+000 -1.000000e+000
    outer loop
      vertex  2.811382e+000 -5.795555e+000 -3.750000e+000
      vertex -4.389618e+000  1.829492e+000 -3.750000e+000
      vertex -4.653695e+000  2.394776e+000 -3.750000e+000
    endloop
  endfacet
  facet normal  0.000000e+000  0.000000e+000 -9.999999e-001
    outer loop
      vertex  2.811382e+000 -5.795555e+000 -3.750000e+000
      vertex -4.653695e+000  2.394776e+000 -3.750000e+000
      vertex -4.986118e+000  2.922769e+000 -3.750000e+000
    endloop
  endfacet
  facet normal  0.000000e+000  0.000000e+000 -1.000000e+000
    outer loop
      vertex  2.811382e+000 -5.795555e+000 -3.750000e+000
      vertex -4.986118e+000  2.922769e+000 -3.750000e+000
      vertex -5.381709e+000  3.405252e+000 -3.750000e+000
    endloop
  endfacet
  facet normal  0.000000e+000  0.000000e+000 -1.000000e+000
    outer loop
      vertex  2.811382e+000 -5.795555e+000 -3.750000e+000
      vertex -5.381709e+000  3.405252e+000 -3.750000e+000
      vertex  3.459593e+000 -5.581671e+000 -3.750000e+000
    endloop
  endfacet
  facet normal  0.000000e+000  0.000000e+000 -1.000000e+000
    outer loop
      vertex -4.736826e+000 -7.818091e+000 -3.750000e+000
      vertex -5.108532e+000 -7.880908e+000 -3.750000e+000
      vertex -7.251431e+000 -5.776122e+000 -3.750000e+000
    endloop
  endfacet
  facet normal  0.000000e+000  0.000000e+000 -1.000000e+000
    outer loop
      vertex -4.736826e+000 -7.818091e+000 -3.750000e+000
      vertex -7.251431e+000 -5.776122e+000 -3.750000e+000
      vertex -7.195293e+000 -5.403349e+000 -3.750000e+000
    endloop
  endfacet
  facet normal  0.000000e+000  0.000000e+000 -1.000000e+000
    outer loop
      vertex -4.736826e+000 -7.818091e+000 -3.750000e+000
      vertex -7.195293e+000 -5.403349e+000 -3.750000e+000
      vertex -7.070203e+000 -5.047732e+000 -3.750000e+000
    endloop
  endfacet
  facet normal  0.000000e+000  0.000000e+000 -1.000000e+000
    outer loop
      vertex -4.736826e+000 -7.818091e+000 -3.750000e+000
      vertex -7.070203e+000 -5.047732e+000 -3.750000e+000
      vertex -6.880603e+000 -4.721905e+000 -3.750000e+000
    endloop
  endfacet
  facet normal  0.000000e+000  0.000000e+000 -9.999999e-001
    outer loop
      vertex -4.736826e+000 -7.818091e+000 -3.750000e+000
      vertex -6.880603e+000 -4.721905e+000 -3.750000e+000
      vertex -6.633230e+000 -4.437445e+000 -3.750000e+000
    endloop
  endfacet
  facet normal  0.000000e+000  0.000000e+000 -9.999999e-001
    outer loop
      vertex -4.736826e+000 -7.818091e+000 -3.750000e+000
      vertex -6.633230e+000 -4.437445e+000 -3.750000e+000
      vertex -6.336873e+000 -4.204457e+000 -3.750000e+000
    endloop
  endfacet
  facet normal  0.000000e+000  0.000000e+000 -1.000000e+000
    outer loop
      vertex -4.736826e+000 -7.818091e+000 -3.750000e+000
      vertex -6.336873e+000 -4.204457e+000 -3.750000e+000
      vertex -5.834310e+000 -3.834710e+000 -3.750000e+000
    endloop
  endfacet
  facet normal  0.000000e+000  0.000000e+000 -1.000000e+000
    outer loop
      vertex -4.736826e+000 -7.818091e+000 -3.750000e+000
      vertex -5.834310e+000 -3.834710e+000 -3.750000e+000
      vertex -5.381709e+000 -3.405252e+000 -3.750000e+000
    endloop
  endfacet
  facet normal  0.000000e+000  0.000000e+000 -1.000000e+000
    outer loop
      vertex -4.736826e+000 -7.818091e+000 -3.750000e+000
      vertex -5.381709e+000 -3.405252e+000 -3.750000e+000
      vertex -4.986118e+000 -2.922769e+000 -3.750000e+000
    endloop
  endfacet
  facet normal  0.000000e+000  0.000000e+000 -1.000000e+000
    outer loop
      vertex -4.736826e+000 -7.818091e+000 -3.750000e+000
      vertex -4.986118e+000 -2.922769e+000 -3.750000e+000
      vertex -4.653695e+000 -2.394776e+000 -3.750000e+000
    endloop
  endfacet
  facet normal  0.000000e+000  -0.000000e+000 -1.000000e+000
    outer loop
      vertex -4.736826e+000 -7.818091e+000 -3.750000e+000
      vertex -4.653695e+000 -2.394776e+000 -3.750000e+000
      vertex -4.389618e+000 -1.829492e+000 -3.750000e+000
    endloop
  endfacet
  facet normal  0.000000e+000  -0.000000e+000 -1.000000e+000
    outer loop
      vertex -4.736826e+000 -7.818091e+000 -3.750000e+000
      vertex -4.389618e+000 -1.829492e+000 -3.750000e+000
      vertex -4.197999e+000 -1.235722e+000 -3.750000e+000
    endloop
  endfacet
  facet normal  0.000000e+000  -0.000000e+000 -1.000000e+000
    outer loop
      vertex -4.736826e+000 -7.818091e+000 -3.750000e+000
      vertex -4.197999e+000 -1.235722e+000 -3.750000e+000
      vertex -4.081820e+000 -6.227090e-001 -3.750000e+000
    endloop
  endfacet
  facet normal  0.000000e+000  0.000000e+000 -1.000000e+000
    outer loop
      vertex -6.633230e+000  4.437445e+000 -3.750000e+000
      vertex -6.880603e+000  4.721905e+000 -3.750000e+000
      vertex -6.336873e+000  4.204457e+000 -3.750000e+000
    endloop
  endfacet
  facet normal  0.000000e+000  0.000000e+000 -1.000000e+000
    outer loop
      vertex -6.336873e+000  4.204457e+000 -3.750000e+000
      vertex -6.880603e+000  4.721905e+000 -3.750000e+000
      vertex -7.070203e+000  5.047732e+000 -3.750000e+000
    endloop
  endfacet
  facet normal  0.000000e+000  0.000000e+000 -1.000000e+000
    outer loop
      vertex -6.336873e+000  4.204457e+000 -3.750000e+000
      vertex -7.070203e+000  5.047732e+000 -3.750000e+000
      vertex -5.834310e+000  3.834710e+000 -3.750000e+000
    endloop
  endfacet
  facet normal  0.000000e+000  0.000000e+000 -1.000000e+000
    outer loop
      vertex  5.689814e+000  4.045142e+000 -3.750000e+000
      vertex  6.120586e+000  3.515652e+000 -3.750000e+000
      vertex  5.201690e+000  4.522278e+000 -3.750000e+000
    endloop
  endfacet
  facet normal  0.000000e+000  0.000000e+000 -9.999999e-001
    outer loop
      vertex  5.201690e+000  4.522278e+000 -3.750000e+000
      vertex  6.120586e+000  3.515652e+000 -3.750000e+000
      vertex  6.488431e+000  2.940661e+000 -3.750000e+000
    endloop
  endfacet
  facet normal  0.000000e+000  0.000000e+000 -9.999999e-001
    outer loop
      vertex  5.201690e+000  4.522278e+000 -3.750000e+000
      vertex  6.488431e+000  2.940661e+000 -3.750000e+000
      vertex  4.662531e+000  4.940886e+000 -3.750000e+000
    endloop
  endfacet
  facet normal  0.000000e+000  0.000000e+000 -1.000000e+000
    outer loop
      vertex  4.662531e+000  4.940886e+000 -3.750000e+000
      vertex  6.488431e+000  2.940661e+000 -3.750000e+000
      vertex  6.788588e+000  2.327612e+000 -3.750000e+000
    endloop
  endfacet
  facet normal  0.000000e+000  0.000000e+000 -1.000000e+000
    outer loop
      vertex  4.662531e+000  4.940886e+000 -3.750000e+000
      vertex  6.788588e+000  2.327612e+000 -3.750000e+000
      vertex  4.079317e+000  5.295547e+000 -3.750000e+000
    endloop
  endfacet
  facet normal  0.000000e+000  0.000000e+000 -1.000000e+000
    outer loop
      vertex  4.079317e+000  5.295547e+000 -3.750000e+000
      vertex  6.788588e+000  2.327612e+000 -3.750000e+000
      vertex  7.017172e+000  1.684437e+000 -3.750000e+000
    endloop
  endfacet
  facet normal  0.000000e+000  0.000000e+000 -1.000000e+000
    outer loop
      vertex  4.079317e+000  5.295547e+000 -3.750000e+000
      vertex  7.017172e+000  1.684437e+000 -3.750000e+000
      vertex  3.459593e+000  5.581671e+000 -3.750000e+000
    endloop
  endfacet
  facet normal  0.000000e+000  0.000000e+000 -1.000000e+000
    outer loop
      vertex  3.459593e+000  5.581671e+000 -3.750000e+000
      vertex  7.017172e+000  1.684437e+000 -3.750000e+000
      vertex  7.171225e+000  1.019462e+000 -3.750000e+000
    endloop
  endfacet
  facet normal  0.000000e+000  0.000000e+000 -1.000000e+000
    outer loop
      vertex  3.459593e+000  5.581671e+000 -3.750000e+000
      vertex  7.171225e+000  1.019462e+000 -3.750000e+000
      vertex  2.811382e+000  5.795555e+000 -3.750000e+000
    endloop
  endfacet
  facet normal  0.000000e+000  0.000000e+000 -1.000000e+000
    outer loop
      vertex  6.120586e+000 -3.515652e+000 -3.750000e+000
      vertex  5.689814e+000 -4.045142e+000 -3.750000e+000
      vertex -4.736826e+000  7.818091e+000 -3.750000e+000
    endloop
  endfacet
  facet normal  -0.000000e+000  -0.000000e+000 -1.000000e+000
    outer loop
      vertex -4.736826e+000  7.818091e+000 -3.750000e+000
      vertex  5.689814e+000 -4.045142e+000 -3.750000e+000
      vertex -5.108532e+000  7.880908e+000 -3.750000e+000
    endloop
  endfacet
  facet normal  0.000000e+000  0.000000e+000 -1.000000e+000
    outer loop
      vertex  5.689814e+000 -4.045142e+000 -3.750000e+000
      vertex -5.854107e+000  7.794230e+000 -3.750000e+000
      vertex -5.108532e+000  7.880908e+000 -3.750000e+000
    endloop
  endfacet
  facet normal  0.000000e+000  0.000000e+000 -1.000000e+000
    outer loop
      vertex -5.108532e+000  7.880908e+000 -3.750000e+000
      vertex -5.854107e+000  7.794230e+000 -3.750000e+000
      vertex -5.485423e+000  7.872859e+000 -3.750000e+000
    endloop
  endfacet
  facet normal  0.000000e+000  -0.000000e+000 -1.000000e+000
    outer loop
      vertex -6.515224e+000  7.438814e+000 -3.750000e+000
      vertex -6.201488e+000  7.647815e+000 -3.750000e+000
      vertex  5.201690e+000 -4.522278e+000 -3.750000e+000
    endloop
  endfacet
  facet normal  0.000000e+000  0.000000e+000 -1.000000e+000
    outer loop
      vertex  5.201690e+000 -4.522278e+000 -3.750000e+000
      vertex -6.201488e+000  7.647815e+000 -3.750000e+000
      vertex -5.854107e+000  7.794230e+000 -3.750000e+000
    endloop
  endfacet
  facet normal  0.000000e+000  0.000000e+000 -1.000000e+000
    outer loop
      vertex  5.201690e+000 -4.522278e+000 -3.750000e+000
      vertex -5.854107e+000  7.794230e+000 -3.750000e+000
      vertex  5.689814e+000 -4.045142e+000 -3.750000e+000
    endloop
  endfacet
  facet normal  0.000000e+000  -0.000000e+000 -1.000000e+000
    outer loop
      vertex -7.151389e+000  6.520021e+000 -3.750000e+000
      vertex -6.998764e+000  6.864719e+000 -3.750000e+000
      vertex  4.079317e+000 -5.295547e+000 -3.750000e+000
    endloop
  endfacet
  facet normal  0.000000e+000  0.000000e+000 -9.999999e-001
    outer loop
      vertex  4.079317e+000 -5.295547e+000 -3.750000e+000
      vertex -6.998764e+000  6.864719e+000 -3.750000e+000
      vertex -6.784167e+000  7.174654e+000 -3.750000e+000
    endloop
  endfacet
  facet normal  0.000000e+000  0.000000e+000 -9.999999e-001
    outer loop
      vertex  4.079317e+000 -5.295547e+000 -3.750000e+000
      vertex -6.784167e+000  7.174654e+000 -3.750000e+000
      vertex  4.662531e+000 -4.940886e+000 -3.750000e+000
    endloop
  endfacet
  facet normal  0.000000e+000  0.000000e+000 -1.000000e+000
    outer loop
      vertex  4.662531e+000 -4.940886e+000 -3.750000e+000
      vertex -6.784167e+000  7.174654e+000 -3.750000e+000
      vertex -6.515224e+000  7.438814e+000 -3.750000e+000
    endloop
  endfacet
  facet normal  0.000000e+000  0.000000e+000 -1.000000e+000
    outer loop
      vertex  4.662531e+000 -4.940886e+000 -3.750000e+000
      vertex -6.515224e+000  7.438814e+000 -3.750000e+000
      vertex  5.201690e+000 -4.522278e+000 -3.750000e+000
    endloop
  endfacet
  facet normal  0.000000e+000  0.000000e+000 -1.000000e+000
    outer loop
      vertex  4.079317e+000 -5.295547e+000 -3.750000e+000
      vertex  3.459593e+000 -5.581671e+000 -3.750000e+000
      vertex -7.151389e+000  6.520021e+000 -3.750000e+000
    endloop
  endfacet
  facet normal  0.000000e+000  -0.000000e+000 -1.000000e+000
    outer loop
      vertex -7.151389e+000  6.520021e+000 -3.750000e+000
      vertex  3.459593e+000 -5.581671e+000 -3.750000e+000
      vertex -7.236620e+000  6.152807e+000 -3.750000e+000
    endloop
  endfacet
  facet normal  0.000000e+000  0.000000e+000 -1.000000e+000
    outer loop
      vertex  3.459593e+000 -5.581671e+000 -3.750000e+000
      vertex -7.195293e+000  5.403349e+000 -3.750000e+000
      vertex -7.236620e+000  6.152807e+000 -3.750000e+000
    endloop
  endfacet
  facet normal  0.000000e+000  -0.000000e+000 -9.999999e-001
    outer loop
      vertex -7.236620e+000  6.152807e+000 -3.750000e+000
      vertex -7.195293e+000  5.403349e+000 -3.750000e+000
      vertex -7.251431e+000  5.776122e+000 -3.750000e+000
    endloop
  endfacet
  facet normal  0.000000e+000  0.000000e+000 -1.000000e+000
    outer loop
      vertex -5.854107e+000 -7.794230e+000 -3.750000e+000
      vertex -7.236620e+000 -6.152807e+000 -3.750000e+000
      vertex -5.485423e+000 -7.872859e+000 -3.750000e+000
    endloop
  endfacet
  facet normal  0.000000e+000  0.000000e+000 -9.999999e-001
    outer loop
      vertex -5.485423e+000 -7.872859e+000 -3.750000e+000
      vertex -7.236620e+000 -6.152807e+000 -3.750000e+000
      vertex -7.251431e+000 -5.776122e+000 -3.750000e+000
    endloop
  endfacet
  facet normal  0.000000e+000  0.000000e+000 -1.000000e+000
    outer loop
      vertex -5.485423e+000 -7.872859e+000 -3.750000e+000
      vertex -7.251431e+000 -5.776122e+000 -3.750000e+000
      vertex -5.108532e+000 -7.880908e+000 -3.750000e+000
    endloop
  endfacet
  facet normal  0.000000e+000  0.000000e+000 -1.000000e+000
    outer loop
      vertex -7.236620e+000 -6.152807e+000 -3.750000e+000
      vertex -5.854107e+000 -7.794230e+000 -3.750000e+000
      vertex -7.151389e+000 -6.520021e+000 -3.750000e+000
    endloop
  endfacet
  facet normal  0.000000e+000  0.000000e+000 -1.000000e+000
    outer loop
      vertex -7.151389e+000 -6.520021e+000 -3.750000e+000
      vertex -5.854107e+000 -7.794230e+000 -3.750000e+000
      vertex -6.201488e+000 -7.647815e+000 -3.750000e+000
    endloop
  endfacet
  facet normal  0.000000e+000  0.000000e+000 -9.999999e-001
    outer loop
      vertex -7.151389e+000 -6.520021e+000 -3.750000e+000
      vertex -6.201488e+000 -7.647815e+000 -3.750000e+000
      vertex -6.998764e+000 -6.864719e+000 -3.750000e+000
    endloop
  endfacet
  facet normal  0.000000e+000  0.000000e+000 -1.000000e+000
    outer loop
      vertex -6.998764e+000 -6.864719e+000 -3.750000e+000
      vertex -6.201488e+000 -7.647815e+000 -3.750000e+000
      vertex -6.515224e+000 -7.438814e+000 -3.750000e+000
    endloop
  endfacet
  facet normal  0.000000e+000  0.000000e+000 -1.000000e+000
    outer loop
      vertex -6.998764e+000 -6.864719e+000 -3.750000e+000
      vertex -6.515224e+000 -7.438814e+000 -3.750000e+000
      vertex -6.784167e+000 -7.174654e+000 -3.750000e+000
    endloop
  endfacet
endsolid CATIA STL
