solid CATIA STL
  facet normal  0.000000e+000  -0.000000e+000 -1.000000e+000
    outer loop
      vertex  8.803270e-001  1.928232e+000 -3.450000e+000
      vertex  1.050218e+000  1.949046e+000 -3.450000e+000
      vertex  4.409018e+000  1.744766e+000 -3.450000e+000
    endloop
  endfacet
  facet normal  0.000000e+000  0.000000e+000 -1.000000e+000
    outer loop
      vertex  2.395149e-001  2.131046e+000 -3.450000e+000
      vertex -4.871816e+000  2.541409e+000 -3.450000e+000
      vertex -4.659741e+000  3.497788e+000 -3.450000e+000
    endloop
  endfacet
  facet normal  0.000000e+000  0.000000e+000 -1.000000e+000
    outer loop
      vertex  2.395149e-001  2.131046e+000 -3.450000e+000
      vertex -4.659741e+000  3.497788e+000 -3.450000e+000
      vertex -4.579128e+000  3.725249e+000 -3.450000e+000
    endloop
  endfacet
  facet normal  0.000000e+000  0.000000e+000 -1.000000e+000
    outer loop
      vertex  2.395149e-001  2.131046e+000 -3.450000e+000
      vertex -4.579128e+000  3.725249e+000 -3.450000e+000
      vertex -4.459305e+000  3.934723e+000 -3.450000e+000
    endloop
  endfacet
  facet normal  0.000000e+000  0.000000e+000 -1.000000e+000
    outer loop
      vertex  2.395149e-001  2.131046e+000 -3.450000e+000
      vertex -4.459305e+000  3.934723e+000 -3.450000e+000
      vertex -4.304101e+000  4.119516e+000 -3.450000e+000
    endloop
  endfacet
  facet normal  0.000000e+000  0.000000e+000 -1.000000e+000
    outer loop
      vertex  2.395149e-001  2.131046e+000 -3.450000e+000
      vertex -4.304101e+000  4.119516e+000 -3.450000e+000
      vertex -4.118476e+000  4.273725e+000 -3.450000e+000
    endloop
  endfacet
  facet normal  0.000000e+000  0.000000e+000 -9.999999e-001
    outer loop
      vertex  2.395149e-001  2.131046e+000 -3.450000e+000
      vertex -4.118476e+000  4.273725e+000 -3.450000e+000
      vertex -2.535867e+000  4.237676e+000 -3.450000e+000
    endloop
  endfacet
  facet normal  0.000000e+000  -0.000000e+000 -9.999999e-001
    outer loop
      vertex -5.020588e+000  1.573161e+000 -3.450000e+000
      vertex -4.871816e+000  2.541409e+000 -3.450000e+000
      vertex  2.395149e-001  2.131046e+000 -3.450000e+000
    endloop
  endfacet
  facet normal  0.000000e+000  -0.000000e+000 -9.999999e-001
    outer loop
      vertex -5.020588e+000  1.573161e+000 -3.450000e+000
      vertex  2.395149e-001  2.131046e+000 -3.450000e+000
      vertex  3.842060e-001  2.039610e+000 -3.450000e+000
    endloop
  endfacet
  facet normal  0.000000e+000  -0.000000e+000 -1.000000e+000
    outer loop
      vertex -5.020588e+000  1.573161e+000 -3.450000e+000
      vertex  3.842060e-001  2.039610e+000 -3.450000e+000
      vertex  5.423706e-001  1.974187e+000 -3.450000e+000
    endloop
  endfacet
  facet normal  0.000000e+000  -0.000000e+000 -1.000000e+000
    outer loop
      vertex -5.020588e+000  1.573161e+000 -3.450000e+000
      vertex  5.423706e-001  1.974187e+000 -3.450000e+000
      vertex  7.093751e-001  1.936695e+000 -3.450000e+000
    endloop
  endfacet
  facet normal  0.000000e+000  -0.000000e+000 -1.000000e+000
    outer loop
      vertex -5.020588e+000  1.573161e+000 -3.450000e+000
      vertex  7.093751e-001  1.936695e+000 -3.450000e+000
      vertex  8.803270e-001  1.928232e+000 -3.450000e+000
    endloop
  endfacet
  facet normal  0.000000e+000  -0.000000e+000 -1.000000e+000
    outer loop
      vertex -5.020588e+000  1.573161e+000 -3.450000e+000
      vertex  8.803270e-001  1.928232e+000 -3.450000e+000
      vertex  4.409018e+000  1.744766e+000 -3.450000e+000
    endloop
  endfacet
  facet normal  0.000000e+000  -0.000000e+000 -1.000000e+000
    outer loop
      vertex -5.020588e+000  1.573161e+000 -3.450000e+000
      vertex  4.409018e+000  1.744766e+000 -3.450000e+000
      vertex  4.695306e+000  1.416221e+000 -3.450000e+000
    endloop
  endfacet
  facet normal  0.000000e+000  0.000000e+000 -9.999999e-001
    outer loop
      vertex -5.082046e+000 -1.360794e+000 -3.450000e+000
      vertex -5.125931e+000 -3.821664e-001 -3.450000e+000
      vertex  5.100972e+000 -6.575658e-001 -3.450000e+000
    endloop
  endfacet
  facet normal  0.000000e+000  0.000000e+000 -1.000000e+000
    outer loop
      vertex -5.082046e+000 -1.360794e+000 -3.450000e+000
      vertex  5.100972e+000 -6.575658e-001 -3.450000e+000
      vertex  4.959587e+000 -1.069771e+000 -3.450000e+000
    endloop
  endfacet
  facet normal  0.000000e+000  0.000000e+000 -1.000000e+000
    outer loop
      vertex -5.082046e+000 -1.360794e+000 -3.450000e+000
      vertex  4.959587e+000 -1.069771e+000 -3.450000e+000
      vertex  4.748771e+000 -1.451163e+000 -3.450000e+000
    endloop
  endfacet
  facet normal  -0.000000e+000  0.000000e+000 -9.999999e-001
    outer loop
      vertex -5.082046e+000 -1.360794e+000 -3.450000e+000
      vertex  4.748771e+000 -1.451163e+000 -3.450000e+000
      vertex  4.474930e+000 -1.790153e+000 -3.450000e+000
    endloop
  endfacet
  facet normal  -0.000000e+000  0.000000e+000 -1.000000e+000
    outer loop
      vertex -5.082046e+000 -1.360794e+000 -3.450000e+000
      vertex  4.474930e+000 -1.790153e+000 -3.450000e+000
      vertex  7.988245e-001 -1.962658e+000 -3.450000e+000
    endloop
  endfacet
  facet normal  -0.000000e+000  0.000000e+000 -1.000000e+000
    outer loop
      vertex -5.082046e+000 -1.360794e+000 -3.450000e+000
      vertex  7.988245e-001 -1.962658e+000 -3.450000e+000
      vertex  6.276682e-001 -1.963955e+000 -3.450000e+000
    endloop
  endfacet
  facet normal  -0.000000e+000  0.000000e+000 -9.999999e-001
    outer loop
      vertex -5.082046e+000 -1.360794e+000 -3.450000e+000
      vertex  6.276682e-001 -1.963955e+000 -3.450000e+000
      vertex -4.973950e+000 -2.334422e+000 -3.450000e+000
    endloop
  endfacet
  facet normal  0.000000e+000  0.000000e+000 -1.000000e+000
    outer loop
      vertex -4.973950e+000 -2.334422e+000 -3.450000e+000
      vertex  6.276682e-001 -1.963955e+000 -3.450000e+000
      vertex  4.592402e-001 -1.994421e+000 -3.450000e+000
    endloop
  endfacet
  facet normal  0.000000e+000  0.000000e+000 -1.000000e+000
    outer loop
      vertex -4.973950e+000 -2.334422e+000 -3.450000e+000
      vertex  4.592402e-001 -1.994421e+000 -3.450000e+000
      vertex  2.984747e-001 -2.053163e+000 -3.450000e+000
    endloop
  endfacet
  facet normal  0.000000e+000  0.000000e+000 -1.000000e+000
    outer loop
      vertex -4.973950e+000 -2.334422e+000 -3.450000e+000
      vertex  2.984747e-001 -2.053163e+000 -3.450000e+000
      vertex  1.500816e-001 -2.138460e+000 -3.450000e+000
    endloop
  endfacet
  facet normal  0.000000e+000  0.000000e+000 -1.000000e+000
    outer loop
      vertex -4.973950e+000 -2.334422e+000 -3.450000e+000
      vertex  1.500816e-001 -2.138460e+000 -3.450000e+000
      vertex -2.711082e+000 -4.127021e+000 -3.450000e+000
    endloop
  endfacet
  facet normal  0.000000e+000  0.000000e+000 -1.000000e+000
    outer loop
      vertex -2.711082e+000 -4.127021e+000 -3.450000e+000
      vertex -2.920761e+000 -4.246484e+000 -3.450000e+000
      vertex -4.088853e+000 -4.224155e+000 -3.450000e+000
    endloop
  endfacet
  facet normal  0.000000e+000  0.000000e+000 -1.000000e+000
    outer loop
      vertex -2.711082e+000 -4.127021e+000 -3.450000e+000
      vertex -4.088853e+000 -4.224155e+000 -3.450000e+000
      vertex -4.293813e+000 -4.096765e+000 -3.450000e+000
    endloop
  endfacet
  facet normal  0.000000e+000  0.000000e+000 -1.000000e+000
    outer loop
      vertex -2.711082e+000 -4.127021e+000 -3.450000e+000
      vertex -4.293813e+000 -4.096765e+000 -3.450000e+000
      vertex -4.472817e+000 -3.934919e+000 -3.450000e+000
    endloop
  endfacet
  facet normal  0.000000e+000  0.000000e+000 -1.000000e+000
    outer loop
      vertex -2.711082e+000 -4.127021e+000 -3.450000e+000
      vertex -4.472817e+000 -3.934919e+000 -3.450000e+000
      vertex -4.620147e+000 -3.743788e+000 -3.450000e+000
    endloop
  endfacet
  facet normal  0.000000e+000  0.000000e+000 -1.000000e+000
    outer loop
      vertex -2.711082e+000 -4.127021e+000 -3.450000e+000
      vertex -4.620147e+000 -3.743788e+000 -3.450000e+000
      vertex -4.731092e+000 -3.529480e+000 -3.450000e+000
    endloop
  endfacet
  facet normal  0.000000e+000  0.000000e+000 -1.000000e+000
    outer loop
      vertex -2.711082e+000 -4.127021e+000 -3.450000e+000
      vertex -4.731092e+000 -3.529480e+000 -3.450000e+000
      vertex -4.802110e+000 -3.298844e+000 -3.450000e+000
    endloop
  endfacet
  facet normal  0.000000e+000  0.000000e+000 -1.000000e+000
    outer loop
      vertex -2.711082e+000 -4.127021e+000 -3.450000e+000
      vertex -4.802110e+000 -3.298844e+000 -3.450000e+000
      vertex -4.973950e+000 -2.334422e+000 -3.450000e+000
    endloop
  endfacet
  facet normal  0.000000e+000  -0.000000e+000 -1.000000e+000
    outer loop
      vertex  1.050218e+000  1.949046e+000 -3.450000e+000
      vertex  1.214071e+000  1.998527e+000 -3.450000e+000
      vertex  4.409018e+000  1.744766e+000 -3.450000e+000
    endloop
  endfacet
  facet normal  0.000000e+000  0.000000e+000 -1.000000e+000
    outer loop
      vertex  4.409018e+000  1.744766e+000 -3.450000e+000
      vertex  1.214071e+000  1.998527e+000 -3.450000e+000
      vertex  1.367086e+000  2.075226e+000 -3.450000e+000
    endloop
  endfacet
  facet normal  0.000000e+000  0.000000e+000 -1.000000e+000
    outer loop
      vertex  4.409018e+000  1.744766e+000 -3.450000e+000
      vertex  1.367086e+000  2.075226e+000 -3.450000e+000
      vertex  4.070028e+000  2.018607e+000 -3.450000e+000
    endloop
  endfacet
  facet normal  0.000000e+000  0.000000e+000 -1.000000e+000
    outer loop
      vertex  4.070028e+000  2.018607e+000 -3.450000e+000
      vertex  1.367086e+000  2.075226e+000 -3.450000e+000
      vertex  1.730726e+000  2.259359e+000 -3.450000e+000
    endloop
  endfacet
  facet normal  0.000000e+000  0.000000e+000 -9.999999e-001
    outer loop
      vertex  4.070028e+000  2.018607e+000 -3.450000e+000
      vertex  1.730726e+000  2.259359e+000 -3.450000e+000
      vertex  3.714417e+000  2.217807e+000 -3.450000e+000
    endloop
  endfacet
  facet normal  0.000000e+000  0.000000e+000 -1.000000e+000
    outer loop
      vertex  3.714417e+000  2.217807e+000 -3.450000e+000
      vertex  1.730726e+000  2.259359e+000 -3.450000e+000
      vertex  2.119456e+000  2.381954e+000 -3.450000e+000
    endloop
  endfacet
  facet normal  0.000000e+000  0.000000e+000 -1.000000e+000
    outer loop
      vertex  3.714417e+000  2.217807e+000 -3.450000e+000
      vertex  2.119456e+000  2.381954e+000 -3.450000e+000
      vertex  3.331162e+000  2.356572e+000 -3.450000e+000
    endloop
  endfacet
  facet normal  0.000000e+000  0.000000e+000 -1.000000e+000
    outer loop
      vertex  3.331162e+000  2.356572e+000 -3.450000e+000
      vertex  2.119456e+000  2.381954e+000 -3.450000e+000
      vertex  2.522939e+000  2.439751e+000 -3.450000e+000
    endloop
  endfacet
  facet normal  0.000000e+000  0.000000e+000 -9.999999e-001
    outer loop
      vertex  3.331162e+000  2.356572e+000 -3.450000e+000
      vertex  2.522939e+000  2.439751e+000 -3.450000e+000
      vertex  2.930453e+000  2.431215e+000 -3.450000e+000
    endloop
  endfacet
  facet normal  0.000000e+000  0.000000e+000 -1.000000e+000
    outer loop
      vertex -2.964399e+000  4.455499e+000 -3.450000e+000
      vertex -3.442087e+000  4.509356e+000 -3.450000e+000
      vertex -3.200826e+000  4.503861e+000 -3.450000e+000
    endloop
  endfacet
  facet normal  0.000000e+000  0.000000e+000 -1.000000e+000
    outer loop
      vertex -3.442087e+000  4.509356e+000 -3.450000e+000
      vertex -2.964399e+000  4.455499e+000 -3.450000e+000
      vertex -3.680471e+000  4.471809e+000 -3.450000e+000
    endloop
  endfacet
  facet normal  0.000000e+000  0.000000e+000 -1.000000e+000
    outer loop
      vertex -3.680471e+000  4.471809e+000 -3.450000e+000
      vertex -2.964399e+000  4.455499e+000 -3.450000e+000
      vertex -2.740359e+000  4.365815e+000 -3.450000e+000
    endloop
  endfacet
  facet normal  0.000000e+000  0.000000e+000 -1.000000e+000
    outer loop
      vertex -3.680471e+000  4.471809e+000 -3.450000e+000
      vertex -2.740359e+000  4.365815e+000 -3.450000e+000
      vertex -3.908361e+000  4.392420e+000 -3.450000e+000
    endloop
  endfacet
  facet normal  0.000000e+000  0.000000e+000 -1.000000e+000
    outer loop
      vertex -3.908361e+000  4.392420e+000 -3.450000e+000
      vertex -2.740359e+000  4.365815e+000 -3.450000e+000
      vertex -2.535867e+000  4.237676e+000 -3.450000e+000
    endloop
  endfacet
  facet normal  0.000000e+000  0.000000e+000 -1.000000e+000
    outer loop
      vertex -3.908361e+000  4.392420e+000 -3.450000e+000
      vertex -2.535867e+000  4.237676e+000 -3.450000e+000
      vertex -4.118476e+000  4.273725e+000 -3.450000e+000
    endloop
  endfacet
  facet normal  0.000000e+000  0.000000e+000 -1.000000e+000
    outer loop
      vertex  4.695306e+000  1.416221e+000 -3.450000e+000
      vertex  4.920193e+000  1.042953e+000 -3.450000e+000
      vertex -5.020588e+000  1.573161e+000 -3.450000e+000
    endloop
  endfacet
  facet normal  0.000000e+000  -0.000000e+000 -1.000000e+000
    outer loop
      vertex -5.020588e+000  1.573161e+000 -3.450000e+000
      vertex  4.920193e+000  1.042953e+000 -3.450000e+000
      vertex -5.105416e+000  5.972297e-001 -3.450000e+000
    endloop
  endfacet
  facet normal  -0.000000e+000  0.000000e+000 -1.000000e+000
    outer loop
      vertex  4.920193e+000  1.042953e+000 -3.450000e+000
      vertex  5.076846e+000  6.363046e-001 -3.450000e+000
      vertex -5.105416e+000  5.972297e-001 -3.450000e+000
    endloop
  endfacet
  facet normal  0.000000e+000  0.000000e+000 -1.000000e+000
    outer loop
      vertex -5.105416e+000  5.972297e-001 -3.450000e+000
      vertex  5.076846e+000  6.363046e-001 -3.450000e+000
      vertex  5.160506e+000  2.086316e-001 -3.450000e+000
    endloop
  endfacet
  facet normal  0.000000e+000  0.000000e+000 -1.000000e+000
    outer loop
      vertex  5.100972e+000 -6.575658e-001 -3.450000e+000
      vertex -5.125931e+000 -3.821664e-001 -3.450000e+000
      vertex  5.168630e+000 -2.270713e-001 -3.450000e+000
    endloop
  endfacet
  facet normal  -0.000000e+000  0.000000e+000 -1.000000e+000
    outer loop
      vertex  5.168630e+000 -2.270713e-001 -3.450000e+000
      vertex -5.125931e+000 -3.821664e-001 -3.450000e+000
      vertex -5.105416e+000  5.972297e-001 -3.450000e+000
    endloop
  endfacet
  facet normal  0.000000e+000  0.000000e+000 -9.999999e-001
    outer loop
      vertex  5.168630e+000 -2.270713e-001 -3.450000e+000
      vertex -5.105416e+000  5.972297e-001 -3.450000e+000
      vertex  5.160506e+000  2.086316e-001 -3.450000e+000
    endloop
  endfacet
  facet normal  0.000000e+000  0.000000e+000 -1.000000e+000
    outer loop
      vertex -2.920761e+000 -4.246484e+000 -3.450000e+000
      vertex -3.148360e+000 -4.326707e+000 -3.450000e+000
      vertex -4.088853e+000 -4.224155e+000 -3.450000e+000
    endloop
  endfacet
  facet normal  0.000000e+000  0.000000e+000 -1.000000e+000
    outer loop
      vertex -4.088853e+000 -4.224155e+000 -3.450000e+000
      vertex -3.148360e+000 -4.326707e+000 -3.450000e+000
      vertex -3.864487e+000 -4.313018e+000 -3.450000e+000
    endloop
  endfacet
  facet normal  0.000000e+000  0.000000e+000 -1.000000e+000
    outer loop
      vertex -3.148360e+000 -4.326707e+000 -3.450000e+000
      vertex -3.386605e+000 -4.365127e+000 -3.450000e+000
      vertex -3.864487e+000 -4.313018e+000 -3.450000e+000
    endloop
  endfacet
  facet normal  0.000000e+000  0.000000e+000 -1.000000e+000
    outer loop
      vertex -3.864487e+000 -4.313018e+000 -3.450000e+000
      vertex -3.386605e+000 -4.365127e+000 -3.450000e+000
      vertex -3.627884e+000 -4.360514e+000 -3.450000e+000
    endloop
  endfacet
  facet normal  0.000000e+000  0.000000e+000 -1.000000e+000
    outer loop
      vertex  1.279001e+000 -2.129906e+000 -3.450000e+000
      vertex  1.129332e+000 -2.046867e+000 -3.450000e+000
      vertex  3.773117e+000 -2.301328e+000 -3.450000e+000
    endloop
  endfacet
  facet normal  0.000000e+000  0.000000e+000 -9.999999e-001
    outer loop
      vertex  3.773117e+000 -2.301328e+000 -3.450000e+000
      vertex  1.129332e+000 -2.046867e+000 -3.450000e+000
      vertex  9.676949e-001 -1.990568e+000 -3.450000e+000
    endloop
  endfacet
  facet normal  0.000000e+000  0.000000e+000 -1.000000e+000
    outer loop
      vertex  3.773117e+000 -2.301328e+000 -3.450000e+000
      vertex  9.676949e-001 -1.990568e+000 -3.450000e+000
      vertex  4.146384e+000 -2.076441e+000 -3.450000e+000
    endloop
  endfacet
  facet normal  0.000000e+000  0.000000e+000 -1.000000e+000
    outer loop
      vertex  4.146384e+000 -2.076441e+000 -3.450000e+000
      vertex  9.676949e-001 -1.990568e+000 -3.450000e+000
      vertex  7.988245e-001 -1.962658e+000 -3.450000e+000
    endloop
  endfacet
  facet normal  0.000000e+000  0.000000e+000 -9.999999e-001
    outer loop
      vertex  4.146384e+000 -2.076441e+000 -3.450000e+000
      vertex  7.988245e-001 -1.962658e+000 -3.450000e+000
      vertex  4.474930e+000 -1.790153e+000 -3.450000e+000
    endloop
  endfacet
  facet normal  -0.000000e+000  0.000000e+000 -1.000000e+000
    outer loop
      vertex  1.279001e+000 -2.129906e+000 -3.450000e+000
      vertex  3.773117e+000 -2.301328e+000 -3.450000e+000
      vertex  1.660393e+000 -2.340722e+000 -3.450000e+000
    endloop
  endfacet
  facet normal  0.000000e+000  0.000000e+000 -1.000000e+000
    outer loop
      vertex  1.660393e+000 -2.340722e+000 -3.450000e+000
      vertex  3.773117e+000 -2.301328e+000 -3.450000e+000
      vertex  3.366468e+000 -2.457982e+000 -3.450000e+000
    endloop
  endfacet
  facet normal  -0.000000e+000  0.000000e+000 -1.000000e+000
    outer loop
      vertex  1.660393e+000 -2.340722e+000 -3.450000e+000
      vertex  3.366468e+000 -2.457982e+000 -3.450000e+000
      vertex  2.072598e+000 -2.482107e+000 -3.450000e+000
    endloop
  endfacet
  facet normal  0.000000e+000  0.000000e+000 -9.999999e-001
    outer loop
      vertex  2.072598e+000 -2.482107e+000 -3.450000e+000
      vertex  3.366468e+000 -2.457982e+000 -3.450000e+000
      vertex  2.938795e+000 -2.541641e+000 -3.450000e+000
    endloop
  endfacet
  facet normal  -0.000000e+000  0.000000e+000 -1.000000e+000
    outer loop
      vertex  2.072598e+000 -2.482107e+000 -3.450000e+000
      vertex  2.938795e+000 -2.541641e+000 -3.450000e+000
      vertex  2.503092e+000 -2.549766e+000 -3.450000e+000
    endloop
  endfacet
  facet normal  6.283944e-001  7.778949e-001  0.000000e+000
    outer loop
      vertex  4.070028e+000  2.018607e+000 -3.450000e+000
      vertex  4.070028e+000  2.018607e+000  3.450000e+000
      vertex  4.409018e+000  1.744766e+000 -3.450000e+000
    endloop
  endfacet
  facet normal  6.283944e-001  7.778949e-001  -0.000000e+000
    outer loop
      vertex  4.409018e+000  1.744766e+000 -3.450000e+000
      vertex  4.070028e+000  2.018607e+000  3.450000e+000
      vertex  4.409018e+000  1.744766e+000  3.450000e+000
    endloop
  endfacet
  facet normal  7.539281e-001  6.569570e-001  0.000000e+000
    outer loop
      vertex  4.409018e+000  1.744766e+000 -3.450000e+000
      vertex  4.409018e+000  1.744766e+000  3.450000e+000
      vertex  4.695306e+000  1.416221e+000 -3.450000e+000
    endloop
  endfacet
  facet normal  7.539281e-001  6.569570e-001  -0.000000e+000
    outer loop
      vertex  4.695306e+000  1.416221e+000 -3.450000e+000
      vertex  4.409018e+000  1.744766e+000  3.450000e+000
      vertex  4.695306e+000  1.416221e+000  3.450000e+000
    endloop
  endfacet
  facet normal  8.565534e-001  5.160586e-001  0.000000e+000
    outer loop
      vertex  4.695306e+000  1.416221e+000 -3.450000e+000
      vertex  4.695306e+000  1.416221e+000  3.450000e+000
      vertex  4.920193e+000  1.042953e+000 -3.450000e+000
    endloop
  endfacet
  facet normal  8.565534e-001  5.160586e-001  -0.000000e+000
    outer loop
      vertex  4.920193e+000  1.042953e+000 -3.450000e+000
      vertex  4.695306e+000  1.416221e+000  3.450000e+000
      vertex  4.920193e+000  1.042953e+000  3.450000e+000
    endloop
  endfacet
  facet normal  9.331535e-001  3.594782e-001  0.000000e+000
    outer loop
      vertex  4.920193e+000  1.042953e+000 -3.450000e+000
      vertex  4.920193e+000  1.042953e+000  3.450000e+000
      vertex  5.076846e+000  6.363046e-001 -3.450000e+000
    endloop
  endfacet
  facet normal  9.331535e-001  3.594782e-001  -0.000000e+000
    outer loop
      vertex  5.076846e+000  6.363046e-001 -3.450000e+000
      vertex  4.920193e+000  1.042953e+000  3.450000e+000
      vertex  5.076846e+000  6.363046e-001  3.450000e+000
    endloop
  endfacet
  facet normal  9.813992e-001  1.919784e-001  0.000000e+000
    outer loop
      vertex  5.076846e+000  6.363046e-001 -3.450000e+000
      vertex  5.076846e+000  6.363046e-001  3.450000e+000
      vertex  5.160506e+000  2.086316e-001 -3.450000e+000
    endloop
  endfacet
  facet normal  9.813992e-001  1.919784e-001  -0.000000e+000
    outer loop
      vertex  5.160506e+000  2.086316e-001 -3.450000e+000
      vertex  5.076846e+000  6.363046e-001  3.450000e+000
      vertex  5.160506e+000  2.086316e-001  3.450000e+000
    endloop
  endfacet
  facet normal  9.998261e-001  1.864220e-002  0.000000e+000
    outer loop
      vertex  5.160506e+000  2.086316e-001 -3.450000e+000
      vertex  5.160506e+000  2.086316e-001  3.450000e+000
      vertex  5.168630e+000 -2.270713e-001 -3.450000e+000
    endloop
  endfacet
  facet normal  9.998261e-001  1.864220e-002  -0.000000e+000
    outer loop
      vertex  5.168630e+000 -2.270713e-001 -3.450000e+000
      vertex  5.160506e+000  2.086316e-001  3.450000e+000
      vertex  5.168630e+000 -2.270713e-001  3.450000e+000
    endloop
  endfacet
  facet normal  9.878738e-001 -1.552587e-001  0.000000e+000
    outer loop
      vertex  5.168630e+000 -2.270713e-001 -3.450000e+000
      vertex  5.168630e+000 -2.270713e-001  3.450000e+000
      vertex  5.100972e+000 -6.575658e-001 -3.450000e+000
    endloop
  endfacet
  facet normal  9.878738e-001 -1.552587e-001  0.000000e+000
    outer loop
      vertex  5.100972e+000 -6.575658e-001 -3.450000e+000
      vertex  5.168630e+000 -2.270713e-001  3.450000e+000
      vertex  5.100972e+000 -6.575658e-001  3.450000e+000
    endloop
  endfacet
  facet normal  9.459059e-001 -3.244414e-001  0.000000e+000
    outer loop
      vertex  5.100972e+000 -6.575658e-001 -3.450000e+000
      vertex  5.100972e+000 -6.575658e-001  3.450000e+000
      vertex  4.959587e+000 -1.069771e+000 -3.450000e+000
    endloop
  endfacet
  facet normal  9.459059e-001 -3.244414e-001  0.000000e+000
    outer loop
      vertex  4.959587e+000 -1.069771e+000 -3.450000e+000
      vertex  5.100972e+000 -6.575658e-001  3.450000e+000
      vertex  4.959587e+000 -1.069771e+000  3.450000e+000
    endloop
  endfacet
  facet normal  8.751962e-001 -4.837683e-001  0.000000e+000
    outer loop
      vertex  4.959587e+000 -1.069771e+000 -3.450000e+000
      vertex  4.959587e+000 -1.069771e+000  3.450000e+000
      vertex  4.748771e+000 -1.451163e+000 -3.450000e+000
    endloop
  endfacet
  facet normal  8.751962e-001 -4.837683e-001  0.000000e+000
    outer loop
      vertex  4.748771e+000 -1.451163e+000 -3.450000e+000
      vertex  4.959587e+000 -1.069771e+000  3.450000e+000
      vertex  4.748771e+000 -1.451163e+000  3.450000e+000
    endloop
  endfacet
  facet normal  7.778949e-001 -6.283945e-001  0.000000e+000
    outer loop
      vertex  4.748771e+000 -1.451163e+000 -3.450000e+000
      vertex  4.748771e+000 -1.451163e+000  3.450000e+000
      vertex  4.474930e+000 -1.790153e+000 -3.450000e+000
    endloop
  endfacet
  facet normal  7.778949e-001 -6.283945e-001  0.000000e+000
    outer loop
      vertex  4.474930e+000 -1.790153e+000 -3.450000e+000
      vertex  4.748771e+000 -1.451163e+000  3.450000e+000
      vertex  4.474930e+000 -1.790153e+000  3.450000e+000
    endloop
  endfacet
  facet normal  6.569568e-001 -7.539283e-001  0.000000e+000
    outer loop
      vertex  4.474930e+000 -1.790153e+000 -3.450000e+000
      vertex  4.474930e+000 -1.790153e+000  3.450000e+000
      vertex  4.146384e+000 -2.076441e+000 -3.450000e+000
    endloop
  endfacet
  facet normal  6.569568e-001 -7.539283e-001  0.000000e+000
    outer loop
      vertex  4.146384e+000 -2.076441e+000 -3.450000e+000
      vertex  4.474930e+000 -1.790153e+000  3.450000e+000
      vertex  4.146384e+000 -2.076441e+000  3.450000e+000
    endloop
  endfacet
  facet normal  5.160583e-001 -8.565534e-001  0.000000e+000
    outer loop
      vertex  4.146384e+000 -2.076441e+000 -3.450000e+000
      vertex  4.146384e+000 -2.076441e+000  3.450000e+000
      vertex  3.773117e+000 -2.301328e+000 -3.450000e+000
    endloop
  endfacet
  facet normal  5.160583e-001 -8.565534e-001  0.000000e+000
    outer loop
      vertex  3.773117e+000 -2.301328e+000 -3.450000e+000
      vertex  4.146384e+000 -2.076441e+000  3.450000e+000
      vertex  3.773117e+000 -2.301328e+000  3.450000e+000
    endloop
  endfacet
  facet normal  3.594793e-001 -9.331530e-001  0.000000e+000
    outer loop
      vertex  3.773117e+000 -2.301328e+000 -3.450000e+000
      vertex  3.773117e+000 -2.301328e+000  3.450000e+000
      vertex  3.366468e+000 -2.457982e+000 -3.450000e+000
    endloop
  endfacet
  facet normal  3.594793e-001 -9.331530e-001  0.000000e+000
    outer loop
      vertex  3.366468e+000 -2.457982e+000 -3.450000e+000
      vertex  3.773117e+000 -2.301328e+000  3.450000e+000
      vertex  3.366468e+000 -2.457982e+000  3.450000e+000
    endloop
  endfacet
  facet normal  1.919778e-001 -9.813992e-001  0.000000e+000
    outer loop
      vertex  3.366468e+000 -2.457982e+000 -3.450000e+000
      vertex  3.366468e+000 -2.457982e+000  3.450000e+000
      vertex  2.938795e+000 -2.541641e+000 -3.450000e+000
    endloop
  endfacet
  facet normal  1.919778e-001 -9.813992e-001  0.000000e+000
    outer loop
      vertex  2.938795e+000 -2.541641e+000 -3.450000e+000
      vertex  3.366468e+000 -2.457982e+000  3.450000e+000
      vertex  2.938795e+000 -2.541641e+000  3.450000e+000
    endloop
  endfacet
  facet normal  1.864275e-002 -9.998263e-001  0.000000e+000
    outer loop
      vertex  2.938795e+000 -2.541641e+000 -3.450000e+000
      vertex  2.938795e+000 -2.541641e+000  3.450000e+000
      vertex  2.503092e+000 -2.549766e+000 -3.450000e+000
    endloop
  endfacet
  facet normal  1.864275e-002 -9.998263e-001  0.000000e+000
    outer loop
      vertex  2.503092e+000 -2.549766e+000 -3.450000e+000
      vertex  2.938795e+000 -2.541641e+000  3.450000e+000
      vertex  2.503092e+000 -2.549766e+000  3.450000e+000
    endloop
  endfacet
  facet normal -1.552587e-001 -9.878739e-001  -0.000000e+000
    outer loop
      vertex  2.503092e+000 -2.549766e+000 -3.450000e+000
      vertex  2.503092e+000 -2.549766e+000  3.450000e+000
      vertex  2.072598e+000 -2.482107e+000 -3.450000e+000
    endloop
  endfacet
  facet normal -1.552587e-001 -9.878739e-001  0.000000e+000
    outer loop
      vertex  2.072598e+000 -2.482107e+000 -3.450000e+000
      vertex  2.503092e+000 -2.549766e+000  3.450000e+000
      vertex  2.072598e+000 -2.482107e+000  3.450000e+000
    endloop
  endfacet
  facet normal -3.244419e-001 -9.459056e-001  -0.000000e+000
    outer loop
      vertex  2.072598e+000 -2.482107e+000 -3.450000e+000
      vertex  2.072598e+000 -2.482107e+000  3.450000e+000
      vertex  1.660393e+000 -2.340722e+000 -3.450000e+000
    endloop
  endfacet
  facet normal -3.244419e-001 -9.459056e-001  0.000000e+000
    outer loop
      vertex  1.660393e+000 -2.340722e+000 -3.450000e+000
      vertex  2.072598e+000 -2.482107e+000  3.450000e+000
      vertex  1.660393e+000 -2.340722e+000  3.450000e+000
    endloop
  endfacet
  facet normal -4.837681e-001 -8.751963e-001  -0.000000e+000
    outer loop
      vertex  1.660393e+000 -2.340722e+000 -3.450000e+000
      vertex  1.660393e+000 -2.340722e+000  3.450000e+000
      vertex  1.279001e+000 -2.129906e+000 -3.450000e+000
    endloop
  endfacet
  facet normal -4.837681e-001 -8.751963e-001  0.000000e+000
    outer loop
      vertex  1.279001e+000 -2.129906e+000 -3.450000e+000
      vertex  1.660393e+000 -2.340722e+000  3.450000e+000
      vertex  1.279001e+000 -2.129906e+000  3.450000e+000
    endloop
  endfacet
  facet normal  1.779943e-001 -9.840314e-001  0.000000e+000
    outer loop
      vertex  6.276682e-001 -1.963955e+000 -3.450000e+000
      vertex  4.592402e-001 -1.994421e+000  3.450000e+000
      vertex  4.592402e-001 -1.994421e+000 -3.450000e+000
    endloop
  endfacet
  facet normal  3.431965e-001 -9.392637e-001  0.000000e+000
    outer loop
      vertex  4.592402e-001 -1.994421e+000 -3.450000e+000
      vertex  4.592402e-001 -1.994421e+000  3.450000e+000
      vertex  2.984747e-001 -2.053163e+000  3.450000e+000
    endloop
  endfacet
  facet normal  3.431965e-001 -9.392637e-001  0.000000e+000
    outer loop
      vertex  4.592402e-001 -1.994421e+000 -3.450000e+000
      vertex  2.984747e-001 -2.053163e+000  3.450000e+000
      vertex  2.984747e-001 -2.053163e+000 -3.450000e+000
    endloop
  endfacet
  facet normal  4.983452e-001 -8.669788e-001  0.000000e+000
    outer loop
      vertex  2.984747e-001 -2.053163e+000 -3.450000e+000
      vertex  2.984747e-001 -2.053163e+000  3.450000e+000
      vertex  1.500816e-001 -2.138460e+000  3.450000e+000
    endloop
  endfacet
  facet normal  4.983452e-001 -8.669788e-001  0.000000e+000
    outer loop
      vertex  2.984747e-001 -2.053163e+000 -3.450000e+000
      vertex  1.500816e-001 -2.138460e+000  3.450000e+000
      vertex  1.500816e-001 -2.138460e+000 -3.450000e+000
    endloop
  endfacet
  facet normal  1.779943e-001 -9.840314e-001  0.000000e+000
    outer loop
      vertex  4.592402e-001 -1.994421e+000  3.450000e+000
      vertex  6.276682e-001 -1.963955e+000 -3.450000e+000
      vertex  6.276682e-001 -1.963955e+000  3.450000e+000
    endloop
  endfacet
  facet normal  7.576242e-003 -9.999713e-001  0.000000e+000
    outer loop
      vertex  6.276682e-001 -1.963955e+000  3.450000e+000
      vertex  6.276682e-001 -1.963955e+000 -3.450000e+000
      vertex  7.988245e-001 -1.962658e+000 -3.450000e+000
    endloop
  endfacet
  facet normal  7.576242e-003 -9.999713e-001  0.000000e+000
    outer loop
      vertex  6.276682e-001 -1.963955e+000  3.450000e+000
      vertex  7.988245e-001 -1.962658e+000 -3.450000e+000
      vertex  7.988245e-001 -1.962658e+000  3.450000e+000
    endloop
  endfacet
  facet normal -1.630626e-001 -9.866157e-001  -0.000000e+000
    outer loop
      vertex  7.988245e-001 -1.962658e+000  3.450000e+000
      vertex  7.988245e-001 -1.962658e+000 -3.450000e+000
      vertex  9.676949e-001 -1.990568e+000 -3.450000e+000
    endloop
  endfacet
  facet normal -1.630626e-001 -9.866157e-001  0.000000e+000
    outer loop
      vertex  7.988245e-001 -1.962658e+000  3.450000e+000
      vertex  9.676949e-001 -1.990568e+000 -3.450000e+000
      vertex  9.676949e-001 -1.990568e+000  3.450000e+000
    endloop
  endfacet
  facet normal -3.289251e-001 -9.443560e-001  -0.000000e+000
    outer loop
      vertex  9.676949e-001 -1.990568e+000  3.450000e+000
      vertex  9.676949e-001 -1.990568e+000 -3.450000e+000
      vertex  1.129332e+000 -2.046867e+000 -3.450000e+000
    endloop
  endfacet
  facet normal -3.289251e-001 -9.443560e-001  0.000000e+000
    outer loop
      vertex  9.676949e-001 -1.990568e+000  3.450000e+000
      vertex  1.129332e+000 -2.046867e+000 -3.450000e+000
      vertex  1.129332e+000 -2.046867e+000  3.450000e+000
    endloop
  endfacet
  facet normal -4.851510e-001 -8.744303e-001  -0.000000e+000
    outer loop
      vertex  1.129332e+000 -2.046867e+000  3.450000e+000
      vertex  1.129332e+000 -2.046867e+000 -3.450000e+000
      vertex  1.279001e+000 -2.129906e+000 -3.450000e+000
    endloop
  endfacet
  facet normal -4.851510e-001 -8.744303e-001  0.000000e+000
    outer loop
      vertex  1.129332e+000 -2.046867e+000  3.450000e+000
      vertex  1.279001e+000 -2.129906e+000 -3.450000e+000
      vertex  1.279001e+000 -2.129906e+000  3.450000e+000
    endloop
  endfacet
  facet normal  5.707136e-001 -8.211492e-001  0.000000e+000
    outer loop
      vertex  1.500816e-001 -2.138460e+000 -3.450000e+000
      vertex  1.500816e-001 -2.138460e+000  3.450000e+000
      vertex -2.711082e+000 -4.127021e+000 -3.450000e+000
    endloop
  endfacet
  facet normal  5.707136e-001 -8.211492e-001  0.000000e+000
    outer loop
      vertex -2.711082e+000 -4.127021e+000 -3.450000e+000
      vertex  1.500816e-001 -2.138460e+000  3.450000e+000
      vertex -2.711082e+000 -4.127021e+000  3.450000e+000
    endloop
  endfacet
  facet normal  4.950352e-001 -8.688729e-001  0.000000e+000
    outer loop
      vertex -2.711082e+000 -4.127021e+000 -3.450000e+000
      vertex -2.711082e+000 -4.127021e+000  3.450000e+000
      vertex -2.920761e+000 -4.246484e+000 -3.450000e+000
    endloop
  endfacet
  facet normal  4.950352e-001 -8.688729e-001  0.000000e+000
    outer loop
      vertex -2.920761e+000 -4.246484e+000 -3.450000e+000
      vertex -2.711082e+000 -4.127021e+000  3.450000e+000
      vertex -2.920761e+000 -4.246484e+000  3.450000e+000
    endloop
  endfacet
  facet normal  3.324303e-001 -9.431278e-001  0.000000e+000
    outer loop
      vertex -2.920761e+000 -4.246484e+000 -3.450000e+000
      vertex -2.920761e+000 -4.246484e+000  3.450000e+000
      vertex -3.148360e+000 -4.326707e+000 -3.450000e+000
    endloop
  endfacet
  facet normal  3.324303e-001 -9.431278e-001  0.000000e+000
    outer loop
      vertex -3.148360e+000 -4.326707e+000 -3.450000e+000
      vertex -2.920761e+000 -4.246484e+000  3.450000e+000
      vertex -3.148360e+000 -4.326707e+000  3.450000e+000
    endloop
  endfacet
  facet normal  1.592025e-001 -9.872460e-001  0.000000e+000
    outer loop
      vertex -3.148360e+000 -4.326707e+000 -3.450000e+000
      vertex -3.148360e+000 -4.326707e+000  3.450000e+000
      vertex -3.386605e+000 -4.365127e+000 -3.450000e+000
    endloop
  endfacet
  facet normal  1.592025e-001 -9.872460e-001  0.000000e+000
    outer loop
      vertex -3.386605e+000 -4.365127e+000 -3.450000e+000
      vertex -3.148360e+000 -4.326707e+000  3.450000e+000
      vertex -3.386605e+000 -4.365127e+000  3.450000e+000
    endloop
  endfacet
  facet normal -1.911317e-002 -9.998174e-001  -0.000000e+000
    outer loop
      vertex -3.386605e+000 -4.365127e+000 -3.450000e+000
      vertex -3.386605e+000 -4.365127e+000  3.450000e+000
      vertex -3.627884e+000 -4.360514e+000 -3.450000e+000
    endloop
  endfacet
  facet normal -1.911317e-002 -9.998174e-001  0.000000e+000
    outer loop
      vertex -3.627884e+000 -4.360514e+000 -3.450000e+000
      vertex -3.386605e+000 -4.365127e+000  3.450000e+000
      vertex -3.627884e+000 -4.360514e+000  3.450000e+000
    endloop
  endfacet
  facet normal -1.968164e-001 -9.804403e-001  -0.000000e+000
    outer loop
      vertex -3.627884e+000 -4.360514e+000 -3.450000e+000
      vertex -3.627884e+000 -4.360514e+000  3.450000e+000
      vertex -3.864487e+000 -4.313018e+000 -3.450000e+000
    endloop
  endfacet
  facet normal -1.968164e-001 -9.804403e-001  0.000000e+000
    outer loop
      vertex -3.864487e+000 -4.313018e+000 -3.450000e+000
      vertex -3.627884e+000 -4.360514e+000  3.450000e+000
      vertex -3.864487e+000 -4.313018e+000  3.450000e+000
    endloop
  endfacet
  facet normal -3.682322e-001 -9.297339e-001  -0.000000e+000
    outer loop
      vertex -3.864487e+000 -4.313018e+000 -3.450000e+000
      vertex -3.864487e+000 -4.313018e+000  3.450000e+000
      vertex -4.088853e+000 -4.224155e+000 -3.450000e+000
    endloop
  endfacet
  facet normal -3.682322e-001 -9.297339e-001  0.000000e+000
    outer loop
      vertex -4.088853e+000 -4.224155e+000 -3.450000e+000
      vertex -3.864487e+000 -4.313018e+000  3.450000e+000
      vertex -4.088853e+000 -4.224155e+000  3.450000e+000
    endloop
  endfacet
  facet normal -5.278816e-001 -8.493180e-001  -0.000000e+000
    outer loop
      vertex -4.088853e+000 -4.224155e+000 -3.450000e+000
      vertex -4.088853e+000 -4.224155e+000  3.450000e+000
      vertex -4.293813e+000 -4.096765e+000 -3.450000e+000
    endloop
  endfacet
  facet normal -5.278816e-001 -8.493180e-001  0.000000e+000
    outer loop
      vertex -4.293813e+000 -4.096765e+000 -3.450000e+000
      vertex -4.088853e+000 -4.224155e+000  3.450000e+000
      vertex -4.293813e+000 -4.096765e+000  3.450000e+000
    endloop
  endfacet
  facet normal -6.706617e-001 -7.417634e-001  -0.000000e+000
    outer loop
      vertex -4.293813e+000 -4.096765e+000 -3.450000e+000
      vertex -4.293813e+000 -4.096765e+000  3.450000e+000
      vertex -4.472817e+000 -3.934919e+000 -3.450000e+000
    endloop
  endfacet
  facet normal -6.706617e-001 -7.417634e-001  0.000000e+000
    outer loop
      vertex -4.472817e+000 -3.934919e+000 -3.450000e+000
      vertex -4.293813e+000 -4.096765e+000  3.450000e+000
      vertex -4.472817e+000 -3.934919e+000  3.450000e+000
    endloop
  endfacet
  facet normal -7.920113e-001 -6.105065e-001  -0.000000e+000
    outer loop
      vertex -4.472817e+000 -3.934919e+000 -3.450000e+000
      vertex -4.472817e+000 -3.934919e+000  3.450000e+000
      vertex -4.620147e+000 -3.743788e+000 -3.450000e+000
    endloop
  endfacet
  facet normal -7.920113e-001 -6.105065e-001  0.000000e+000
    outer loop
      vertex -4.620147e+000 -3.743788e+000 -3.450000e+000
      vertex -4.472817e+000 -3.934919e+000  3.450000e+000
      vertex -4.620147e+000 -3.743788e+000  3.450000e+000
    endloop
  endfacet
  facet normal -8.880538e-001 -4.597395e-001  -0.000000e+000
    outer loop
      vertex -4.620147e+000 -3.743788e+000 -3.450000e+000
      vertex -4.620147e+000 -3.743788e+000  3.450000e+000
      vertex -4.731092e+000 -3.529480e+000 -3.450000e+000
    endloop
  endfacet
  facet normal -8.880538e-001 -4.597395e-001  0.000000e+000
    outer loop
      vertex -4.731092e+000 -3.529480e+000 -3.450000e+000
      vertex -4.620147e+000 -3.743788e+000  3.450000e+000
      vertex -4.731092e+000 -3.529480e+000  3.450000e+000
    endloop
  endfacet
  facet normal -9.557177e-001 -2.942848e-001  -0.000000e+000
    outer loop
      vertex -4.731092e+000 -3.529480e+000 -3.450000e+000
      vertex -4.731092e+000 -3.529480e+000  3.450000e+000
      vertex -4.802110e+000 -3.298844e+000 -3.450000e+000
    endloop
  endfacet
  facet normal -9.557177e-001 -2.942848e-001  0.000000e+000
    outer loop
      vertex -4.802110e+000 -3.298844e+000 -3.450000e+000
      vertex -4.731092e+000 -3.529480e+000  3.450000e+000
      vertex -4.802110e+000 -3.298844e+000  3.450000e+000
    endloop
  endfacet
  facet normal -9.844943e-001 -1.754163e-001  -0.000000e+000
    outer loop
      vertex -4.802110e+000 -3.298844e+000 -3.450000e+000
      vertex -4.802110e+000 -3.298844e+000  3.450000e+000
      vertex -4.973950e+000 -2.334422e+000 -3.450000e+000
    endloop
  endfacet
  facet normal -9.844943e-001 -1.754163e-001  0.000000e+000
    outer loop
      vertex -4.973950e+000 -2.334422e+000 -3.450000e+000
      vertex -4.802110e+000 -3.298844e+000  3.450000e+000
      vertex -4.973950e+000 -2.334422e+000  3.450000e+000
    endloop
  endfacet
  facet normal -9.938932e-001 -1.103460e-001  -0.000000e+000
    outer loop
      vertex -4.973950e+000 -2.334422e+000 -3.450000e+000
      vertex -4.973950e+000 -2.334422e+000  3.450000e+000
      vertex -5.082046e+000 -1.360794e+000 -3.450000e+000
    endloop
  endfacet
  facet normal -9.938932e-001 -1.103460e-001  0.000000e+000
    outer loop
      vertex -5.082046e+000 -1.360794e+000 -3.450000e+000
      vertex -4.973950e+000 -2.334422e+000  3.450000e+000
      vertex -5.082046e+000 -1.360794e+000  3.450000e+000
    endloop
  endfacet
  facet normal -9.989960e-001 -4.479864e-002  -0.000000e+000
    outer loop
      vertex -5.082046e+000 -1.360794e+000 -3.450000e+000
      vertex -5.082046e+000 -1.360794e+000  3.450000e+000
      vertex -5.125931e+000 -3.821664e-001 -3.450000e+000
    endloop
  endfacet
  facet normal -9.989960e-001 -4.479864e-002  0.000000e+000
    outer loop
      vertex -5.125931e+000 -3.821664e-001 -3.450000e+000
      vertex -5.082046e+000 -1.360794e+000  3.450000e+000
      vertex -5.125931e+000 -3.821664e-001  3.450000e+000
    endloop
  endfacet
  facet normal -9.997807e-001  2.094244e-002  0.000000e+000
    outer loop
      vertex -5.125931e+000 -3.821664e-001 -3.450000e+000
      vertex -5.125931e+000 -3.821664e-001  3.450000e+000
      vertex -5.105416e+000  5.972297e-001 -3.450000e+000
    endloop
  endfacet
  facet normal -9.997807e-001  2.094244e-002  0.000000e+000
    outer loop
      vertex -5.105416e+000  5.972297e-001 -3.450000e+000
      vertex -5.125931e+000 -3.821664e-001  3.450000e+000
      vertex -5.105416e+000  5.972297e-001  3.450000e+000
    endloop
  endfacet
  facet normal -9.962437e-001  8.659298e-002  0.000000e+000
    outer loop
      vertex -5.105416e+000  5.972297e-001 -3.450000e+000
      vertex -5.105416e+000  5.972297e-001  3.450000e+000
      vertex -5.020588e+000  1.573161e+000 -3.450000e+000
    endloop
  endfacet
  facet normal -9.962437e-001  8.659298e-002  0.000000e+000
    outer loop
      vertex -5.020588e+000  1.573161e+000 -3.450000e+000
      vertex -5.105416e+000  5.972297e-001  3.450000e+000
      vertex -5.020588e+000  1.573161e+000  3.450000e+000
    endloop
  endfacet
  facet normal -9.884006e-001  1.518692e-001  0.000000e+000
    outer loop
      vertex -5.020588e+000  1.573161e+000 -3.450000e+000
      vertex -5.020588e+000  1.573161e+000  3.450000e+000
      vertex -4.871816e+000  2.541409e+000 -3.450000e+000
    endloop
  endfacet
  facet normal -9.884006e-001  1.518692e-001  0.000000e+000
    outer loop
      vertex -4.871816e+000  2.541409e+000 -3.450000e+000
      vertex -5.020588e+000  1.573161e+000  3.450000e+000
      vertex -4.871816e+000  2.541409e+000  3.450000e+000
    endloop
  endfacet
  facet normal -9.762850e-001  2.164888e-001  0.000000e+000
    outer loop
      vertex -4.871816e+000  2.541409e+000 -3.450000e+000
      vertex -4.871816e+000  2.541409e+000  3.450000e+000
      vertex -4.659741e+000  3.497788e+000 -3.450000e+000
    endloop
  endfacet
  facet normal -9.762850e-001  2.164888e-001  0.000000e+000
    outer loop
      vertex -4.659741e+000  3.497788e+000 -3.450000e+000
      vertex -4.871816e+000  2.541409e+000  3.450000e+000
      vertex -4.659741e+000  3.497788e+000  3.450000e+000
    endloop
  endfacet
  facet normal -9.425566e-001  3.340466e-001  0.000000e+000
    outer loop
      vertex -4.659741e+000  3.497788e+000 -3.450000e+000
      vertex -4.659741e+000  3.497788e+000  3.450000e+000
      vertex -4.579128e+000  3.725249e+000 -3.450000e+000
    endloop
  endfacet
  facet normal -9.425566e-001  3.340466e-001  0.000000e+000
    outer loop
      vertex -4.579128e+000  3.725249e+000 -3.450000e+000
      vertex -4.659741e+000  3.497788e+000  3.450000e+000
      vertex -4.579128e+000  3.725249e+000  3.450000e+000
    endloop
  endfacet
  facet normal -8.680224e-001  4.965251e-001  0.000000e+000
    outer loop
      vertex -4.579128e+000  3.725249e+000 -3.450000e+000
      vertex -4.579128e+000  3.725249e+000  3.450000e+000
      vertex -4.459305e+000  3.934723e+000 -3.450000e+000
    endloop
  endfacet
  facet normal -8.680224e-001  4.965251e-001  0.000000e+000
    outer loop
      vertex -4.459305e+000  3.934723e+000 -3.450000e+000
      vertex -4.579128e+000  3.725249e+000  3.450000e+000
      vertex -4.459305e+000  3.934723e+000  3.450000e+000
    endloop
  endfacet
  facet normal -7.657515e-001  6.431364e-001  0.000000e+000
    outer loop
      vertex -4.459305e+000  3.934723e+000 -3.450000e+000
      vertex -4.459305e+000  3.934723e+000  3.450000e+000
      vertex -4.304101e+000  4.119516e+000 -3.450000e+000
    endloop
  endfacet
  facet normal -7.657515e-001  6.431364e-001  0.000000e+000
    outer loop
      vertex -4.304101e+000  4.119516e+000 -3.450000e+000
      vertex -4.459305e+000  3.934723e+000  3.450000e+000
      vertex -4.304101e+000  4.119516e+000  3.450000e+000
    endloop
  endfacet
  facet normal -6.390123e-001  7.691966e-001  0.000000e+000
    outer loop
      vertex -4.304101e+000  4.119516e+000 -3.450000e+000
      vertex -4.304101e+000  4.119516e+000  3.450000e+000
      vertex -4.118476e+000  4.273725e+000 -3.450000e+000
    endloop
  endfacet
  facet normal -6.390123e-001  7.691966e-001  0.000000e+000
    outer loop
      vertex -4.118476e+000  4.273725e+000 -3.450000e+000
      vertex -4.304101e+000  4.119516e+000  3.450000e+000
      vertex -4.118476e+000  4.273725e+000  3.450000e+000
    endloop
  endfacet
  facet normal -4.918520e-001  8.706788e-001  0.000000e+000
    outer loop
      vertex -4.118476e+000  4.273725e+000 -3.450000e+000
      vertex -4.118476e+000  4.273725e+000  3.450000e+000
      vertex -3.908361e+000  4.392420e+000 -3.450000e+000
    endloop
  endfacet
  facet normal -4.918520e-001  8.706788e-001  0.000000e+000
    outer loop
      vertex -3.908361e+000  4.392420e+000 -3.450000e+000
      vertex -4.118476e+000  4.273725e+000  3.450000e+000
      vertex -3.908361e+000  4.392420e+000  3.450000e+000
    endloop
  endfacet
  facet normal -3.289761e-001  9.443382e-001  0.000000e+000
    outer loop
      vertex -3.908361e+000  4.392420e+000 -3.450000e+000
      vertex -3.908361e+000  4.392420e+000  3.450000e+000
      vertex -3.680471e+000  4.471809e+000 -3.450000e+000
    endloop
  endfacet
  facet normal -3.289761e-001  9.443382e-001  0.000000e+000
    outer loop
      vertex -3.680471e+000  4.471809e+000 -3.450000e+000
      vertex -3.908361e+000  4.392420e+000  3.450000e+000
      vertex -3.680471e+000  4.471809e+000  3.450000e+000
    endloop
  endfacet
  facet normal -1.555868e-001  9.878223e-001  0.000000e+000
    outer loop
      vertex -3.680471e+000  4.471809e+000 -3.450000e+000
      vertex -3.680471e+000  4.471809e+000  3.450000e+000
      vertex -3.442087e+000  4.509356e+000 -3.450000e+000
    endloop
  endfacet
  facet normal -1.555868e-001  9.878223e-001  0.000000e+000
    outer loop
      vertex -3.442087e+000  4.509356e+000 -3.450000e+000
      vertex -3.680471e+000  4.471809e+000  3.450000e+000
      vertex -3.442087e+000  4.509356e+000  3.450000e+000
    endloop
  endfacet
  facet normal  2.277060e-002  9.997407e-001  0.000000e+000
    outer loop
      vertex -3.442087e+000  4.509356e+000 -3.450000e+000
      vertex -3.442087e+000  4.509356e+000  3.450000e+000
      vertex -3.200826e+000  4.503861e+000 -3.450000e+000
    endloop
  endfacet
  facet normal  2.277060e-002  9.997407e-001  -0.000000e+000
    outer loop
      vertex -3.200826e+000  4.503861e+000 -3.450000e+000
      vertex -3.442087e+000  4.509356e+000  3.450000e+000
      vertex -3.200826e+000  4.503861e+000  3.450000e+000
    endloop
  endfacet
  facet normal  2.004045e-001  9.797132e-001  0.000000e+000
    outer loop
      vertex -3.200826e+000  4.503861e+000 -3.450000e+000
      vertex -3.200826e+000  4.503861e+000  3.450000e+000
      vertex -2.964399e+000  4.455499e+000 -3.450000e+000
    endloop
  endfacet
  facet normal  2.004045e-001  9.797132e-001  -0.000000e+000
    outer loop
      vertex -2.964399e+000  4.455499e+000 -3.450000e+000
      vertex -3.200826e+000  4.503861e+000  3.450000e+000
      vertex -2.964399e+000  4.455499e+000  3.450000e+000
    endloop
  endfacet
  facet normal  3.716329e-001  9.283798e-001  0.000000e+000
    outer loop
      vertex -2.964399e+000  4.455499e+000 -3.450000e+000
      vertex -2.964399e+000  4.455499e+000  3.450000e+000
      vertex -2.740359e+000  4.365815e+000 -3.450000e+000
    endloop
  endfacet
  facet normal  3.716329e-001  9.283798e-001  -0.000000e+000
    outer loop
      vertex -2.740359e+000  4.365815e+000 -3.450000e+000
      vertex -2.964399e+000  4.455499e+000  3.450000e+000
      vertex -2.740359e+000  4.365815e+000  3.450000e+000
    endloop
  endfacet
  facet normal  5.309873e-001  8.473798e-001  0.000000e+000
    outer loop
      vertex -2.740359e+000  4.365815e+000 -3.450000e+000
      vertex -2.740359e+000  4.365815e+000  3.450000e+000
      vertex -2.535867e+000  4.237676e+000 -3.450000e+000
    endloop
  endfacet
  facet normal  5.309873e-001  8.473798e-001  -0.000000e+000
    outer loop
      vertex -2.535867e+000  4.237676e+000 -3.450000e+000
      vertex -2.740359e+000  4.365815e+000  3.450000e+000
      vertex -2.535867e+000  4.237676e+000  3.450000e+000
    endloop
  endfacet
  facet normal  6.045991e-001  7.965299e-001  0.000000e+000
    outer loop
      vertex  2.395149e-001  2.131046e+000 -3.450000e+000
      vertex -2.535867e+000  4.237676e+000 -3.450000e+000
      vertex  2.395149e-001  2.131046e+000  3.450000e+000
    endloop
  endfacet
  facet normal  6.045991e-001  7.965299e-001  0.000000e+000
    outer loop
      vertex  2.395149e-001  2.131046e+000  3.450000e+000
      vertex -2.535867e+000  4.237676e+000 -3.450000e+000
      vertex -2.535867e+000  4.237676e+000  3.450000e+000
    endloop
  endfacet
  facet normal -1.216043e-001  9.925787e-001  0.000000e+000
    outer loop
      vertex  8.803270e-001  1.928232e+000 -3.450000e+000
      vertex  1.050218e+000  1.949046e+000  3.450000e+000
      vertex  1.050218e+000  1.949046e+000 -3.450000e+000
    endloop
  endfacet
  facet normal -2.890915e-001  9.573014e-001  0.000000e+000
    outer loop
      vertex  1.050218e+000  1.949046e+000 -3.450000e+000
      vertex  1.050218e+000  1.949046e+000  3.450000e+000
      vertex  1.214071e+000  1.998527e+000  3.450000e+000
    endloop
  endfacet
  facet normal -2.890915e-001  9.573014e-001  0.000000e+000
    outer loop
      vertex  1.050218e+000  1.949046e+000 -3.450000e+000
      vertex  1.214071e+000  1.998527e+000  3.450000e+000
      vertex  1.214071e+000  1.998527e+000 -3.450000e+000
    endloop
  endfacet
  facet normal -4.481082e-001  8.939793e-001  0.000000e+000
    outer loop
      vertex  1.214071e+000  1.998527e+000 -3.450000e+000
      vertex  1.214071e+000  1.998527e+000  3.450000e+000
      vertex  1.367086e+000  2.075226e+000  3.450000e+000
    endloop
  endfacet
  facet normal -4.481082e-001  8.939793e-001  0.000000e+000
    outer loop
      vertex  1.214071e+000  1.998527e+000 -3.450000e+000
      vertex  1.367086e+000  2.075226e+000  3.450000e+000
      vertex  1.367086e+000  2.075226e+000 -3.450000e+000
    endloop
  endfacet
  facet normal -1.216043e-001  9.925787e-001  0.000000e+000
    outer loop
      vertex  1.050218e+000  1.949046e+000  3.450000e+000
      vertex  8.803270e-001  1.928232e+000 -3.450000e+000
      vertex  8.803270e-001  1.928232e+000  3.450000e+000
    endloop
  endfacet
  facet normal  4.944405e-002  9.987770e-001  0.000000e+000
    outer loop
      vertex  8.803270e-001  1.928232e+000  3.450000e+000
      vertex  8.803270e-001  1.928232e+000 -3.450000e+000
      vertex  7.093751e-001  1.936695e+000 -3.450000e+000
    endloop
  endfacet
  facet normal  4.944405e-002  9.987770e-001  -0.000000e+000
    outer loop
      vertex  8.803270e-001  1.928232e+000  3.450000e+000
      vertex  7.093751e-001  1.936695e+000 -3.450000e+000
      vertex  7.093751e-001  1.936695e+000  3.450000e+000
    endloop
  endfacet
  facet normal  2.190451e-001  9.757147e-001  0.000000e+000
    outer loop
      vertex  7.093751e-001  1.936695e+000  3.450000e+000
      vertex  7.093751e-001  1.936695e+000 -3.450000e+000
      vertex  5.423706e-001  1.974187e+000 -3.450000e+000
    endloop
  endfacet
  facet normal  2.190451e-001  9.757147e-001  -0.000000e+000
    outer loop
      vertex  7.093751e-001  1.936695e+000  3.450000e+000
      vertex  5.423706e-001  1.974187e+000 -3.450000e+000
      vertex  5.423706e-001  1.974187e+000  3.450000e+000
    endloop
  endfacet
  facet normal  3.822282e-001  9.240679e-001  0.000000e+000
    outer loop
      vertex  5.423706e-001  1.974187e+000  3.450000e+000
      vertex  5.423706e-001  1.974187e+000 -3.450000e+000
      vertex  3.842060e-001  2.039610e+000 -3.450000e+000
    endloop
  endfacet
  facet normal  3.822282e-001  9.240679e-001  -0.000000e+000
    outer loop
      vertex  5.423706e-001  1.974187e+000  3.450000e+000
      vertex  3.842060e-001  2.039610e+000 -3.450000e+000
      vertex  3.842060e-001  2.039610e+000  3.450000e+000
    endloop
  endfacet
  facet normal  5.342135e-001  8.453497e-001  0.000000e+000
    outer loop
      vertex  3.842060e-001  2.039610e+000  3.450000e+000
      vertex  3.842060e-001  2.039610e+000 -3.450000e+000
      vertex  2.395149e-001  2.131046e+000 -3.450000e+000
    endloop
  endfacet
  facet normal  5.342135e-001  8.453497e-001  -0.000000e+000
    outer loop
      vertex  3.842060e-001  2.039610e+000  3.450000e+000
      vertex  2.395149e-001  2.131046e+000 -3.450000e+000
      vertex  2.395149e-001  2.131046e+000  3.450000e+000
    endloop
  endfacet
  facet normal -4.517467e-001  8.921462e-001  0.000000e+000
    outer loop
      vertex  1.367086e+000  2.075226e+000 -3.450000e+000
      vertex  1.367086e+000  2.075226e+000  3.450000e+000
      vertex  1.730726e+000  2.259359e+000 -3.450000e+000
    endloop
  endfacet
  facet normal -4.517467e-001  8.921462e-001  0.000000e+000
    outer loop
      vertex  1.730726e+000  2.259359e+000 -3.450000e+000
      vertex  1.367086e+000  2.075226e+000  3.450000e+000
      vertex  1.730726e+000  2.259359e+000  3.450000e+000
    endloop
  endfacet
  facet normal -3.007706e-001  9.536965e-001  0.000000e+000
    outer loop
      vertex  1.730726e+000  2.259359e+000 -3.450000e+000
      vertex  1.730726e+000  2.259359e+000  3.450000e+000
      vertex  2.119456e+000  2.381954e+000 -3.450000e+000
    endloop
  endfacet
  facet normal -3.007706e-001  9.536965e-001  0.000000e+000
    outer loop
      vertex  2.119456e+000  2.381954e+000 -3.450000e+000
      vertex  1.730726e+000  2.259359e+000  3.450000e+000
      vertex  2.119456e+000  2.381954e+000  3.450000e+000
    endloop
  endfacet
  facet normal -1.417985e-001  9.898956e-001  0.000000e+000
    outer loop
      vertex  2.119456e+000  2.381954e+000 -3.450000e+000
      vertex  2.119456e+000  2.381954e+000  3.450000e+000
      vertex  2.522939e+000  2.439751e+000 -3.450000e+000
    endloop
  endfacet
  facet normal -1.417985e-001  9.898956e-001  0.000000e+000
    outer loop
      vertex  2.522939e+000  2.439751e+000 -3.450000e+000
      vertex  2.119456e+000  2.381954e+000  3.450000e+000
      vertex  2.522939e+000  2.439751e+000  3.450000e+000
    endloop
  endfacet
  facet normal  2.094280e-002  9.997807e-001  0.000000e+000
    outer loop
      vertex  2.522939e+000  2.439751e+000 -3.450000e+000
      vertex  2.522939e+000  2.439751e+000  3.450000e+000
      vertex  2.930453e+000  2.431215e+000 -3.450000e+000
    endloop
  endfacet
  facet normal  2.094280e-002  9.997807e-001  -0.000000e+000
    outer loop
      vertex  2.930453e+000  2.431215e+000 -3.450000e+000
      vertex  2.522939e+000  2.439751e+000  3.450000e+000
      vertex  2.930453e+000  2.431215e+000  3.450000e+000
    endloop
  endfacet
  facet normal  1.831267e-001  9.830894e-001  0.000000e+000
    outer loop
      vertex  2.930453e+000  2.431215e+000 -3.450000e+000
      vertex  2.930453e+000  2.431215e+000  3.450000e+000
      vertex  3.331162e+000  2.356572e+000 -3.450000e+000
    endloop
  endfacet
  facet normal  1.831267e-001  9.830894e-001  -0.000000e+000
    outer loop
      vertex  3.331162e+000  2.356572e+000 -3.450000e+000
      vertex  2.930453e+000  2.431215e+000  3.450000e+000
      vertex  3.331162e+000  2.356572e+000  3.450000e+000
    endloop
  endfacet
  facet normal  3.404429e-001  9.402652e-001  0.000000e+000
    outer loop
      vertex  3.331162e+000  2.356572e+000 -3.450000e+000
      vertex  3.331162e+000  2.356572e+000  3.450000e+000
      vertex  3.714417e+000  2.217807e+000 -3.450000e+000
    endloop
  endfacet
  facet normal  3.404429e-001  9.402652e-001  -0.000000e+000
    outer loop
      vertex  3.714417e+000  2.217807e+000 -3.450000e+000
      vertex  3.331162e+000  2.356572e+000  3.450000e+000
      vertex  3.714417e+000  2.217807e+000  3.450000e+000
    endloop
  endfacet
  facet normal  4.887100e-001  8.724463e-001  0.000000e+000
    outer loop
      vertex  3.714417e+000  2.217807e+000 -3.450000e+000
      vertex  3.714417e+000  2.217807e+000  3.450000e+000
      vertex  4.070028e+000  2.018607e+000 -3.450000e+000
    endloop
  endfacet
  facet normal  4.887100e-001  8.724463e-001  -0.000000e+000
    outer loop
      vertex  4.070028e+000  2.018607e+000 -3.450000e+000
      vertex  3.714417e+000  2.217807e+000  3.450000e+000
      vertex  4.070028e+000  2.018607e+000  3.450000e+000
    endloop
  endfacet
  facet normal  0.000000e+000  0.000000e+000  1.000000e+000
    outer loop
      vertex  4.409018e+000  1.744766e+000  3.450000e+000
      vertex  1.050218e+000  1.949046e+000  3.450000e+000
      vertex  8.803270e-001  1.928232e+000  3.450000e+000
    endloop
  endfacet
  facet normal  0.000000e+000  0.000000e+000  9.999999e-001
    outer loop
      vertex  2.395149e-001  2.131046e+000  3.450000e+000
      vertex -2.535867e+000  4.237676e+000  3.450000e+000
      vertex -4.118476e+000  4.273725e+000  3.450000e+000
    endloop
  endfacet
  facet normal  0.000000e+000  0.000000e+000  1.000000e+000
    outer loop
      vertex  2.395149e-001  2.131046e+000  3.450000e+000
      vertex -4.118476e+000  4.273725e+000  3.450000e+000
      vertex -4.304101e+000  4.119516e+000  3.450000e+000
    endloop
  endfacet
  facet normal  0.000000e+000  0.000000e+000  1.000000e+000
    outer loop
      vertex  2.395149e-001  2.131046e+000  3.450000e+000
      vertex -4.304101e+000  4.119516e+000  3.450000e+000
      vertex -4.459305e+000  3.934723e+000  3.450000e+000
    endloop
  endfacet
  facet normal  0.000000e+000  0.000000e+000  1.000000e+000
    outer loop
      vertex  2.395149e-001  2.131046e+000  3.450000e+000
      vertex -4.459305e+000  3.934723e+000  3.450000e+000
      vertex -4.579128e+000  3.725249e+000  3.450000e+000
    endloop
  endfacet
  facet normal  0.000000e+000  0.000000e+000  1.000000e+000
    outer loop
      vertex  2.395149e-001  2.131046e+000  3.450000e+000
      vertex -4.579128e+000  3.725249e+000  3.450000e+000
      vertex -4.659741e+000  3.497788e+000  3.450000e+000
    endloop
  endfacet
  facet normal  0.000000e+000  0.000000e+000  1.000000e+000
    outer loop
      vertex  2.395149e-001  2.131046e+000  3.450000e+000
      vertex -4.659741e+000  3.497788e+000  3.450000e+000
      vertex -4.871816e+000  2.541409e+000  3.450000e+000
    endloop
  endfacet
  facet normal  0.000000e+000  0.000000e+000  9.999999e-001
    outer loop
      vertex -5.020588e+000  1.573161e+000  3.450000e+000
      vertex  4.695306e+000  1.416221e+000  3.450000e+000
      vertex  4.409018e+000  1.744766e+000  3.450000e+000
    endloop
  endfacet
  facet normal  0.000000e+000  0.000000e+000  1.000000e+000
    outer loop
      vertex -5.020588e+000  1.573161e+000  3.450000e+000
      vertex  4.409018e+000  1.744766e+000  3.450000e+000
      vertex  8.803270e-001  1.928232e+000  3.450000e+000
    endloop
  endfacet
  facet normal  0.000000e+000  0.000000e+000  1.000000e+000
    outer loop
      vertex -5.020588e+000  1.573161e+000  3.450000e+000
      vertex  8.803270e-001  1.928232e+000  3.450000e+000
      vertex  7.093751e-001  1.936695e+000  3.450000e+000
    endloop
  endfacet
  facet normal  0.000000e+000  0.000000e+000  1.000000e+000
    outer loop
      vertex -5.020588e+000  1.573161e+000  3.450000e+000
      vertex  7.093751e-001  1.936695e+000  3.450000e+000
      vertex  5.423706e-001  1.974187e+000  3.450000e+000
    endloop
  endfacet
  facet normal  0.000000e+000  0.000000e+000  1.000000e+000
    outer loop
      vertex -5.020588e+000  1.573161e+000  3.450000e+000
      vertex  5.423706e-001  1.974187e+000  3.450000e+000
      vertex  3.842060e-001  2.039610e+000  3.450000e+000
    endloop
  endfacet
  facet normal  0.000000e+000  0.000000e+000  9.999999e-001
    outer loop
      vertex -5.020588e+000  1.573161e+000  3.450000e+000
      vertex  3.842060e-001  2.039610e+000  3.450000e+000
      vertex  2.395149e-001  2.131046e+000  3.450000e+000
    endloop
  endfacet
  facet normal  0.000000e+000  0.000000e+000  1.000000e+000
    outer loop
      vertex -5.020588e+000  1.573161e+000  3.450000e+000
      vertex  2.395149e-001  2.131046e+000  3.450000e+000
      vertex -4.871816e+000  2.541409e+000  3.450000e+000
    endloop
  endfacet
  facet normal  0.000000e+000  -0.000000e+000  9.999999e-001
    outer loop
      vertex -5.082046e+000 -1.360794e+000  3.450000e+000
      vertex -4.973950e+000 -2.334422e+000  3.450000e+000
      vertex  6.276682e-001 -1.963955e+000  3.450000e+000
    endloop
  endfacet
  facet normal  0.000000e+000  -0.000000e+000  1.000000e+000
    outer loop
      vertex -5.082046e+000 -1.360794e+000  3.450000e+000
      vertex  6.276682e-001 -1.963955e+000  3.450000e+000
      vertex  7.988245e-001 -1.962658e+000  3.450000e+000
    endloop
  endfacet
  facet normal  0.000000e+000  -0.000000e+000  1.000000e+000
    outer loop
      vertex -5.082046e+000 -1.360794e+000  3.450000e+000
      vertex  7.988245e-001 -1.962658e+000  3.450000e+000
      vertex  4.474930e+000 -1.790153e+000  3.450000e+000
    endloop
  endfacet
  facet normal  0.000000e+000  -0.000000e+000  9.999999e-001
    outer loop
      vertex -5.082046e+000 -1.360794e+000  3.450000e+000
      vertex  4.474930e+000 -1.790153e+000  3.450000e+000
      vertex  4.748771e+000 -1.451163e+000  3.450000e+000
    endloop
  endfacet
  facet normal  0.000000e+000  -0.000000e+000  1.000000e+000
    outer loop
      vertex -5.082046e+000 -1.360794e+000  3.450000e+000
      vertex  4.748771e+000 -1.451163e+000  3.450000e+000
      vertex  4.959587e+000 -1.069771e+000  3.450000e+000
    endloop
  endfacet
  facet normal  0.000000e+000  -0.000000e+000  1.000000e+000
    outer loop
      vertex -5.082046e+000 -1.360794e+000  3.450000e+000
      vertex  4.959587e+000 -1.069771e+000  3.450000e+000
      vertex  5.100972e+000 -6.575658e-001  3.450000e+000
    endloop
  endfacet
  facet normal  0.000000e+000  0.000000e+000  9.999999e-001
    outer loop
      vertex -5.082046e+000 -1.360794e+000  3.450000e+000
      vertex  5.100972e+000 -6.575658e-001  3.450000e+000
      vertex -5.125931e+000 -3.821664e-001  3.450000e+000
    endloop
  endfacet
  facet normal  0.000000e+000  -0.000000e+000  1.000000e+000
    outer loop
      vertex -4.973950e+000 -2.334422e+000  3.450000e+000
      vertex -2.711082e+000 -4.127021e+000  3.450000e+000
      vertex  1.500816e-001 -2.138460e+000  3.450000e+000
    endloop
  endfacet
  facet normal  0.000000e+000  -0.000000e+000  1.000000e+000
    outer loop
      vertex -4.973950e+000 -2.334422e+000  3.450000e+000
      vertex  1.500816e-001 -2.138460e+000  3.450000e+000
      vertex  2.984747e-001 -2.053163e+000  3.450000e+000
    endloop
  endfacet
  facet normal  0.000000e+000  -0.000000e+000  1.000000e+000
    outer loop
      vertex -4.973950e+000 -2.334422e+000  3.450000e+000
      vertex  2.984747e-001 -2.053163e+000  3.450000e+000
      vertex  4.592402e-001 -1.994421e+000  3.450000e+000
    endloop
  endfacet
  facet normal  0.000000e+000  -0.000000e+000  1.000000e+000
    outer loop
      vertex -4.973950e+000 -2.334422e+000  3.450000e+000
      vertex  4.592402e-001 -1.994421e+000  3.450000e+000
      vertex  6.276682e-001 -1.963955e+000  3.450000e+000
    endloop
  endfacet
  facet normal  0.000000e+000  0.000000e+000  1.000000e+000
    outer loop
      vertex -2.711082e+000 -4.127021e+000  3.450000e+000
      vertex -4.973950e+000 -2.334422e+000  3.450000e+000
      vertex -4.802110e+000 -3.298844e+000  3.450000e+000
    endloop
  endfacet
  facet normal  0.000000e+000  0.000000e+000  1.000000e+000
    outer loop
      vertex -2.711082e+000 -4.127021e+000  3.450000e+000
      vertex -4.802110e+000 -3.298844e+000  3.450000e+000
      vertex -4.731092e+000 -3.529480e+000  3.450000e+000
    endloop
  endfacet
  facet normal  0.000000e+000  0.000000e+000  1.000000e+000
    outer loop
      vertex -2.711082e+000 -4.127021e+000  3.450000e+000
      vertex -4.731092e+000 -3.529480e+000  3.450000e+000
      vertex -4.620147e+000 -3.743788e+000  3.450000e+000
    endloop
  endfacet
  facet normal  0.000000e+000  0.000000e+000  1.000000e+000
    outer loop
      vertex -2.711082e+000 -4.127021e+000  3.450000e+000
      vertex -4.620147e+000 -3.743788e+000  3.450000e+000
      vertex -4.472817e+000 -3.934919e+000  3.450000e+000
    endloop
  endfacet
  facet normal  0.000000e+000  0.000000e+000  1.000000e+000
    outer loop
      vertex -2.711082e+000 -4.127021e+000  3.450000e+000
      vertex -4.472817e+000 -3.934919e+000  3.450000e+000
      vertex -4.293813e+000 -4.096765e+000  3.450000e+000
    endloop
  endfacet
  facet normal  0.000000e+000  0.000000e+000  9.999999e-001
    outer loop
      vertex -2.711082e+000 -4.127021e+000  3.450000e+000
      vertex -4.293813e+000 -4.096765e+000  3.450000e+000
      vertex -4.088853e+000 -4.224155e+000  3.450000e+000
    endloop
  endfacet
  facet normal  -0.000000e+000  0.000000e+000  1.000000e+000
    outer loop
      vertex -2.711082e+000 -4.127021e+000  3.450000e+000
      vertex -4.088853e+000 -4.224155e+000  3.450000e+000
      vertex -2.920761e+000 -4.246484e+000  3.450000e+000
    endloop
  endfacet
  facet normal  0.000000e+000  0.000000e+000  9.999999e-001
    outer loop
      vertex  2.930453e+000  2.431215e+000  3.450000e+000
      vertex  2.522939e+000  2.439751e+000  3.450000e+000
      vertex  3.331162e+000  2.356572e+000  3.450000e+000
    endloop
  endfacet
  facet normal  0.000000e+000  0.000000e+000  1.000000e+000
    outer loop
      vertex  3.331162e+000  2.356572e+000  3.450000e+000
      vertex  2.522939e+000  2.439751e+000  3.450000e+000
      vertex  2.119456e+000  2.381954e+000  3.450000e+000
    endloop
  endfacet
  facet normal  0.000000e+000  0.000000e+000  1.000000e+000
    outer loop
      vertex  3.331162e+000  2.356572e+000  3.450000e+000
      vertex  2.119456e+000  2.381954e+000  3.450000e+000
      vertex  3.714417e+000  2.217807e+000  3.450000e+000
    endloop
  endfacet
  facet normal  0.000000e+000  0.000000e+000  1.000000e+000
    outer loop
      vertex  3.714417e+000  2.217807e+000  3.450000e+000
      vertex  2.119456e+000  2.381954e+000  3.450000e+000
      vertex  1.730726e+000  2.259359e+000  3.450000e+000
    endloop
  endfacet
  facet normal  0.000000e+000  0.000000e+000  9.999999e-001
    outer loop
      vertex  3.714417e+000  2.217807e+000  3.450000e+000
      vertex  1.730726e+000  2.259359e+000  3.450000e+000
      vertex  4.070028e+000  2.018607e+000  3.450000e+000
    endloop
  endfacet
  facet normal  0.000000e+000  0.000000e+000  1.000000e+000
    outer loop
      vertex  4.070028e+000  2.018607e+000  3.450000e+000
      vertex  1.730726e+000  2.259359e+000  3.450000e+000
      vertex  1.367086e+000  2.075226e+000  3.450000e+000
    endloop
  endfacet
  facet normal  0.000000e+000  0.000000e+000  1.000000e+000
    outer loop
      vertex  4.070028e+000  2.018607e+000  3.450000e+000
      vertex  1.367086e+000  2.075226e+000  3.450000e+000
      vertex  4.409018e+000  1.744766e+000  3.450000e+000
    endloop
  endfacet
  facet normal  0.000000e+000  0.000000e+000  1.000000e+000
    outer loop
      vertex  4.409018e+000  1.744766e+000  3.450000e+000
      vertex  1.367086e+000  2.075226e+000  3.450000e+000
      vertex  1.214071e+000  1.998527e+000  3.450000e+000
    endloop
  endfacet
  facet normal  0.000000e+000  0.000000e+000  1.000000e+000
    outer loop
      vertex  4.409018e+000  1.744766e+000  3.450000e+000
      vertex  1.214071e+000  1.998527e+000  3.450000e+000
      vertex  1.050218e+000  1.949046e+000  3.450000e+000
    endloop
  endfacet
  facet normal  0.000000e+000  0.000000e+000  1.000000e+000
    outer loop
      vertex -3.200826e+000  4.503861e+000  3.450000e+000
      vertex -3.442087e+000  4.509356e+000  3.450000e+000
      vertex -2.964399e+000  4.455499e+000  3.450000e+000
    endloop
  endfacet
  facet normal  0.000000e+000  0.000000e+000  1.000000e+000
    outer loop
      vertex -2.964399e+000  4.455499e+000  3.450000e+000
      vertex -3.442087e+000  4.509356e+000  3.450000e+000
      vertex -3.680471e+000  4.471809e+000  3.450000e+000
    endloop
  endfacet
  facet normal  0.000000e+000  0.000000e+000  1.000000e+000
    outer loop
      vertex -2.964399e+000  4.455499e+000  3.450000e+000
      vertex -3.680471e+000  4.471809e+000  3.450000e+000
      vertex -2.740359e+000  4.365815e+000  3.450000e+000
    endloop
  endfacet
  facet normal  0.000000e+000  0.000000e+000  1.000000e+000
    outer loop
      vertex -2.740359e+000  4.365815e+000  3.450000e+000
      vertex -3.680471e+000  4.471809e+000  3.450000e+000
      vertex -3.908361e+000  4.392420e+000  3.450000e+000
    endloop
  endfacet
  facet normal  0.000000e+000  0.000000e+000  1.000000e+000
    outer loop
      vertex -2.740359e+000  4.365815e+000  3.450000e+000
      vertex -3.908361e+000  4.392420e+000  3.450000e+000
      vertex -2.535867e+000  4.237676e+000  3.450000e+000
    endloop
  endfacet
  facet normal  0.000000e+000  0.000000e+000  1.000000e+000
    outer loop
      vertex -2.535867e+000  4.237676e+000  3.450000e+000
      vertex -3.908361e+000  4.392420e+000  3.450000e+000
      vertex -4.118476e+000  4.273725e+000  3.450000e+000
    endloop
  endfacet
  facet normal  0.000000e+000  0.000000e+000  1.000000e+000
    outer loop
      vertex  4.695306e+000  1.416221e+000  3.450000e+000
      vertex -5.020588e+000  1.573161e+000  3.450000e+000
      vertex  4.920193e+000  1.042953e+000  3.450000e+000
    endloop
  endfacet
  facet normal  0.000000e+000  0.000000e+000  1.000000e+000
    outer loop
      vertex  4.920193e+000  1.042953e+000  3.450000e+000
      vertex -5.020588e+000  1.573161e+000  3.450000e+000
      vertex -5.105416e+000  5.972297e-001  3.450000e+000
    endloop
  endfacet
  facet normal  0.000000e+000  0.000000e+000  1.000000e+000
    outer loop
      vertex  4.920193e+000  1.042953e+000  3.450000e+000
      vertex -5.105416e+000  5.972297e-001  3.450000e+000
      vertex  5.076846e+000  6.363046e-001  3.450000e+000
    endloop
  endfacet
  facet normal  0.000000e+000  0.000000e+000  1.000000e+000
    outer loop
      vertex  5.076846e+000  6.363046e-001  3.450000e+000
      vertex -5.105416e+000  5.972297e-001  3.450000e+000
      vertex  5.160506e+000  2.086316e-001  3.450000e+000
    endloop
  endfacet
  facet normal  0.000000e+000  0.000000e+000  9.999999e-001
    outer loop
      vertex  5.160506e+000  2.086316e-001  3.450000e+000
      vertex -5.105416e+000  5.972297e-001  3.450000e+000
      vertex  5.168630e+000 -2.270713e-001  3.450000e+000
    endloop
  endfacet
  facet normal  0.000000e+000  0.000000e+000  1.000000e+000
    outer loop
      vertex  5.168630e+000 -2.270713e-001  3.450000e+000
      vertex -5.105416e+000  5.972297e-001  3.450000e+000
      vertex -5.125931e+000 -3.821664e-001  3.450000e+000
    endloop
  endfacet
  facet normal  -0.000000e+000  0.000000e+000  1.000000e+000
    outer loop
      vertex  5.168630e+000 -2.270713e-001  3.450000e+000
      vertex -5.125931e+000 -3.821664e-001  3.450000e+000
      vertex  5.100972e+000 -6.575658e-001  3.450000e+000
    endloop
  endfacet
  facet normal  0.000000e+000  0.000000e+000  1.000000e+000
    outer loop
      vertex -2.920761e+000 -4.246484e+000  3.450000e+000
      vertex -4.088853e+000 -4.224155e+000  3.450000e+000
      vertex -3.148360e+000 -4.326707e+000  3.450000e+000
    endloop
  endfacet
  facet normal  0.000000e+000  0.000000e+000  9.999999e-001
    outer loop
      vertex -3.148360e+000 -4.326707e+000  3.450000e+000
      vertex -4.088853e+000 -4.224155e+000  3.450000e+000
      vertex -3.864487e+000 -4.313018e+000  3.450000e+000
    endloop
  endfacet
  facet normal  0.000000e+000  0.000000e+000  1.000000e+000
    outer loop
      vertex -3.148360e+000 -4.326707e+000  3.450000e+000
      vertex -3.864487e+000 -4.313018e+000  3.450000e+000
      vertex -3.386605e+000 -4.365127e+000  3.450000e+000
    endloop
  endfacet
  facet normal  0.000000e+000  0.000000e+000  1.000000e+000
    outer loop
      vertex -3.386605e+000 -4.365127e+000  3.450000e+000
      vertex -3.864487e+000 -4.313018e+000  3.450000e+000
      vertex -3.627884e+000 -4.360514e+000  3.450000e+000
    endloop
  endfacet
  facet normal  -0.000000e+000  0.000000e+000  9.999999e-001
    outer loop
      vertex  4.474930e+000 -1.790153e+000  3.450000e+000
      vertex  7.988245e-001 -1.962658e+000  3.450000e+000
      vertex  4.146384e+000 -2.076441e+000  3.450000e+000
    endloop
  endfacet
  facet normal  0.000000e+000  0.000000e+000  1.000000e+000
    outer loop
      vertex  4.146384e+000 -2.076441e+000  3.450000e+000
      vertex  7.988245e-001 -1.962658e+000  3.450000e+000
      vertex  9.676949e-001 -1.990568e+000  3.450000e+000
    endloop
  endfacet
  facet normal  0.000000e+000  0.000000e+000  1.000000e+000
    outer loop
      vertex  4.146384e+000 -2.076441e+000  3.450000e+000
      vertex  9.676949e-001 -1.990568e+000  3.450000e+000
      vertex  3.773117e+000 -2.301328e+000  3.450000e+000
    endloop
  endfacet
  facet normal  0.000000e+000  0.000000e+000  9.999999e-001
    outer loop
      vertex  3.773117e+000 -2.301328e+000  3.450000e+000
      vertex  9.676949e-001 -1.990568e+000  3.450000e+000
      vertex  1.129332e+000 -2.046867e+000  3.450000e+000
    endloop
  endfacet
  facet normal  0.000000e+000  0.000000e+000  1.000000e+000
    outer loop
      vertex  3.773117e+000 -2.301328e+000  3.450000e+000
      vertex  1.129332e+000 -2.046867e+000  3.450000e+000
      vertex  1.279001e+000 -2.129906e+000  3.450000e+000
    endloop
  endfacet
  facet normal  0.000000e+000  0.000000e+000  1.000000e+000
    outer loop
      vertex  2.503092e+000 -2.549766e+000  3.450000e+000
      vertex  2.938795e+000 -2.541641e+000  3.450000e+000
      vertex  2.072598e+000 -2.482107e+000  3.450000e+000
    endloop
  endfacet
  facet normal  -0.000000e+000  0.000000e+000  9.999999e-001
    outer loop
      vertex  2.072598e+000 -2.482107e+000  3.450000e+000
      vertex  2.938795e+000 -2.541641e+000  3.450000e+000
      vertex  3.366468e+000 -2.457982e+000  3.450000e+000
    endloop
  endfacet
  facet normal  0.000000e+000  0.000000e+000  1.000000e+000
    outer loop
      vertex  2.072598e+000 -2.482107e+000  3.450000e+000
      vertex  3.366468e+000 -2.457982e+000  3.450000e+000
      vertex  1.660393e+000 -2.340722e+000  3.450000e+000
    endloop
  endfacet
  facet normal  -0.000000e+000  0.000000e+000  1.000000e+000
    outer loop
      vertex  1.660393e+000 -2.340722e+000  3.450000e+000
      vertex  3.366468e+000 -2.457982e+000  3.450000e+000
      vertex  3.773117e+000 -2.301328e+000  3.450000e+000
    endloop
  endfacet
  facet normal  0.000000e+000  0.000000e+000  1.000000e+000
    outer loop
      vertex  1.660393e+000 -2.340722e+000  3.450000e+000
      vertex  3.773117e+000 -2.301328e+000  3.450000e+000
      vertex  1.279001e+000 -2.129906e+000  3.450000e+000
    endloop
  endfacet
endsolid CATIA STL
